<svg id="Слой_1" data-name="Слой 1" xmlns="http://www.w3.org/2000/svg" viewBox="0 0 160 118"><defs><style>.cls-1{fill:#127fa2}.cls-2,.cls-3{fill:#fff}.cls-2{fill-rule:evenodd}</style></defs><title>chistetika-blue</title><path class="cls-1" d="M0 0h160v118H0z"/><path class="cls-2" d="M127.55 90.4l-.15.12a.84.84 0 0 0-.31-.25.89.89 0 0 0-.39-.09.87.87 0 0 0-.43.11.8.8 0 0 0-.31.3.83.83 0 0 0-.11.42.8.8 0 0 0 .24.59.85.85 0 0 0 .62.24.87.87 0 0 0 .69-.32l.15.12a1 1 0 0 1-.36.29 1.15 1.15 0 0 1-.49.1 1 1 0 0 1-1.06-1 1 1 0 0 1 .3-.72 1 1 0 0 1 .75-.29 1.11 1.11 0 0 1 .49.11 1 1 0 0 1 .36.3zm1.45-.22a.84.84 0 0 0-.71.41.84.84 0 0 0-.11.42.82.82 0 0 0 .82.82.84.84 0 0 0 .42-.11.79.79 0 0 0 .3-.3.84.84 0 0 0 .11-.42.82.82 0 0 0-.11-.42.81.81 0 0 0-.31-.3.83.83 0 0 0-.42-.11zm0-.19a1 1 0 0 1 .74.29 1 1 0 0 1 0 1.45 1 1 0 0 1-.73.3 1 1 0 0 1-.73-.3 1 1 0 0 1-.3-.72 1 1 0 0 1 .14-.52A1 1 0 0 1 129 90zm3.76 1.01a.78.78 0 0 0-.25-.59.81.81 0 0 0-.57-.24.79.79 0 0 0-.57.24.81.81 0 0 0-.24.6.78.78 0 0 0 .24.59.82.82 0 0 0 1.15 0 .8.8 0 0 0 .24-.6zm-2.17-.1h.34a1 1 0 0 1 1-.92 1 1 0 0 1 .74.29 1 1 0 0 1 .3.73 1 1 0 0 1-.29.72 1 1 0 0 1-.72.3 1 1 0 0 1-1-.94h-.34V92h-.19v-2h.19v.92zm2.74-.67a.71.71 0 0 1 .55-.24.65.65 0 0 1 .43.14.44.44 0 0 1 .17.36.46.46 0 0 1-.31.44.5.5 0 0 1 .41.52.54.54 0 0 1-.18.43.75.75 0 0 1-.51.16.83.83 0 0 1-.39-.09.9.9 0 0 1-.31-.3l.16-.09a.75.75 0 0 0 .27.25.64.64 0 0 0 .26.06.54.54 0 0 0 .34-.11.42.42 0 0 0 .09-.51.37.37 0 0 0-.13-.13.52.52 0 0 0-.17-.06h-.29v-.17h.07q.47 0 .47-.35a.33.33 0 0 0-.11-.26.39.39 0 0 0-.27-.1.57.57 0 0 0-.4.18l-.14-.12zm2.64 1.8l.29-2.05h.04l.86 1.7.84-1.7h.03l.3 2.05h-.2l-.21-1.39-.74 1.39h-.05l-.75-1.4-.2 1.4h-.21zm-.67-1.29a.25.25 0 1 1-.25.25.25.25 0 0 1 .25-.25zm-8.3-6.29a2.35 2.35 0 0 1 1.86-.91h.32l.11-.81h-.43a3.18 3.18 0 0 0-.43 6.33h.43a3.18 3.18 0 0 0 2.95-4.38L131 85a2.36 2.36 0 0 1-2.19 3.25h-.32a2.36 2.36 0 0 1-1.49-3.8z"/><path class="cls-2" d="M137.58 85.66a2.13 2.13 0 0 0 0-.23 2.07 2.07 0 0 0-.65-1.11 1.7 1.7 0 0 0-2.25 0 2.06 2.06 0 0 0-.68 1.08v3.39h-.75V85.4a2.06 2.06 0 0 0-.65-1.11 1.7 1.7 0 0 0-2.25 0 2.07 2.07 0 0 0-.65 1.11v.11h-.76v-.18a3 3 0 0 1 .91-1.66 2.43 2.43 0 0 1 1.64-.65 2.35 2.35 0 0 1 1.35.43 2.8 2.8 0 0 1 .84.94 2.79 2.79 0 0 1 .85-.94 2.4 2.4 0 0 1 1.37-.43 2.43 2.43 0 0 1 1.64.65 3 3 0 0 1 .88 1.55v3.58h-.75v-2.89a2.27 2.27 0 0 0 0-.25zm-88.42 1.99h-2.6a2.87 2.87 0 0 0-3.11-2.22 3.1 3.1 0 0 0-1.47.36 4.05 4.05 0 0 0-1.82 2 7.36 7.36 0 0 0 .36 6.23 3.29 3.29 0 0 0 2.95 1.78 2.89 2.89 0 0 0 3-2.14h2.62a6.14 6.14 0 0 1-2 3.27 6 6 0 0 1-8.39-1.15 8.58 8.58 0 0 1-1.55-5.25 8.42 8.42 0 0 1 1.57-5.16 5.56 5.56 0 0 1 4.7-2.32 5.67 5.67 0 0 1 3.69 1.21 5.9 5.9 0 0 1 2 3.35zM59.74 97.9h-2.38v-6.28h-4.5v6.28h-2.38V83.37h2.38v5.99h4.5v-5.99h2.38V97.9zm4.55 0h-2.46V86.64h2.46V97.9zm0-12.17h-2.46v-2.42h2.46v2.42zm36.62 12.17h-2.47V86.64h2.47V97.9zm0-12.17h-2.47v-2.42h2.47v2.42zm-27.19 7.99a4.9 4.9 0 0 1-1 3.19 3.73 3.73 0 0 1-3 1.27 3.65 3.65 0 0 1-3-1.27 4.8 4.8 0 0 1-1-3.17h2.42a2.89 2.89 0 0 0 .38 1.43 1.3 1.3 0 0 0 1.13.79 1.37 1.37 0 0 0 1.19-.77 2.65 2.65 0 0 0 .4-1.43 2.7 2.7 0 0 0-1.35-2.26l-2.54-1.55A3.62 3.62 0 0 1 66 87a3.94 3.94 0 0 1 1-2.86 3.72 3.72 0 0 1 2.81-1.06 3.46 3.46 0 0 1 2.7 1.07 4.06 4.06 0 0 1 .91 2.78h-2.3a2.27 2.27 0 0 0-.4-1.14 1.09 1.09 0 0 0-.93-.53 1.17 1.17 0 0 0-1 .51 2 2 0 0 0-.38 1.23 2.24 2.24 0 0 0 .4 1.24 3 3 0 0 0 1.11 1 13.65 13.65 0 0 1 2.62 1.71 3.7 3.7 0 0 1 1.17 2.8zm7.71-8.09h-2.4V97.9H76.6V85.63h-2.42v-2.26h7.25v2.26zm7.46 12.27h-6.56V83.37h6.56v2.26h-4.12v3.79h4.12v2.22h-4.12v3.96h4.12v2.3zm8.1-12.27h-2.4V97.9h-2.42V85.63h-2.42v-2.26h7.24v2.26zm14.64 12.27h-2.71l-3.95-7.33v7.33h-2.38V83.37h2.38v6.98l4.01-6.98h2.53l-4.3 6.98 4.42 7.55zm11.84 0H121l-1-3.27h-4.49l-1 3.27H112l4.66-14.53h2.12l4.64 14.53zm-4.1-5.31l-1.59-5.83-1.63 5.83zm-50-31.32h-1.68v1.68h1.68v-1.68zm0 2.05h-1.68v1.69h1.68v-1.69zm-3.74-22.98h1.58c0-.19.07-.38.11-.57v-1.11h-1.69v1.68zm3.74 18.87h-1.68v1.69h1.68v-1.69zm0 6.17h-1.68v1.68h1.68v-1.68zm0-8.94q-.36-.64-.68-1.34h-1v1.68h1.68v-.34zm0 11h-1.68v1.68h1.68v-1.68zM65.63 42.4h1.3c.06-.58.13-1.14.22-1.69h-1.52v1.69zm0 4.11h1.19v-1.68h-1.19v1.69zm0-2.06h1.17c0-.57 0-1.13.09-1.68h-1.26v1.68zm0 4.11H67q-.09-.82-.14-1.69h-1.23v1.69zm2.16 4.12l-.1-.36v.36zm1.58 4.48h-1.68v1.68h1.68v-1.68zm2.06 2.07h-1.69v1.67h1.69v-1.67zm2.05 6.15H71.8v1.68h1.68v-1.68zm0 4.11H71.8v1.69h1.68v-1.69zm0-2.05H71.8v1.68h1.68v-1.68zm0-4.12H71.8v1.69h1.68v-1.69zm0-2.05H71.8v1.68h1.68v-1.68zm-2.05 2.05h-1.69v1.69h1.69v-1.69zm0-2.05h-1.69v1.68h1.69v-1.68zm0 6.17h-1.69v1.68h1.69v-1.68zm0 2.05h-1.69v1.69h1.69v-1.69zm0-4.11h-1.69v1.68h1.69v-1.68zm-1.69-6.54h1.33a13.88 13.88 0 0 1-1.27-1.69h-.06v1.69zm-2.05-24.66h1.65v-1.69h-1.65v1.69zm0-12.34h1.68v-1.68h-1.68v1.68zm2.05 11.65q.33-.52.69-1h-.69v1zm-2.05-5.48h1.68v-1.69h-1.68v1.69zm0 2.06h1.68v-1.69h-1.68v1.69zm2.05 2.05h1c.23-.28.46-.54.7-.8v-.89h-1.7v1.68zm0-10.28h1.69v-1.68h-1.69v1.68zm0 6.17h1.69v-1.69h-1.69v1.69zm0-2.06h1.69v-1.68h-1.69v1.68zm-4.11 12.34h1.69V36.6h-1.69v1.69zm4.11-8.22h1.69v-1.69h-1.69v1.69zm-4.11 0h1.69v-1.69h-1.69v1.69zm0 2.05h1.69v-1.69h-1.69v1.69zm2.06 0h1.68v-1.69h-1.68v1.69zm-2.06 4.11h1.69v-1.68h-1.69v1.68zM71.8 60.9h1.61a12.08 12.08 0 0 1-1.61-1.3v1.3zm-4.11-6.17h.84q-.34-.81-.62-1.69h-.22v1.69zM65.63 23.9h1.69v-1.69h-1.69v1.69zm2.06 12.33h.67a17.21 17.21 0 0 1 .78-1.68h-1.45v1.68zm0 2q.24-.85.53-1.63h-.53v1.63zM83.76 62.5a12.17 12.17 0 0 1-1.69.33V63h1.69v-.5zm0 2.88h-1.68v1.68h1.68v-1.68zM71.8 31c.19-.18.38-.35.58-.52h-.58V31zm11.96 32.32h-1.68v1.69h1.68v-1.69zm-2.06 2.06h-1.68v1.68h1.68v-1.68zm-4.11 0h-1.68v1.68h1.68v-1.68zm0 2.06h-1.68v1.68h1.68v-1.68zm0-4.12h-1.68v1.69h1.68v-1.69zm2.06 8.23h-1.68v1.78h1.68v-1.78zm0-2.06h-1.68v1.69h1.68v-1.69zm-2.06-6.83a12.1 12.1 0 0 1-1.69-.48V63h1.69v-.3zm0 6.83h-1.68v1.69h1.68v-1.69zm-2.05-2.05h-1.69v1.68h1.69v-1.68zm2.05 4.11h-1.68v1.78h1.68v-1.78zm-2.05-6.17h-1.69v1.68h1.69v-1.68zm0-2.06h-1.69v1.69h1.69v-1.69zm0-1.32a11.64 11.64 0 0 1-1.54-.73h-.14V63h1.69v-1zm0 7.49h-1.69v1.69h1.69v-1.69zm6.16-6.17h-1.68v1.69h1.68v-1.69zm0-.45c-.44 0-.89.07-1.35.07H80h1.7v-.09zm2.06 4.57h-1.68v1.68h1.68v-1.68zm0 2.05h-1.68v1.69h1.68v-1.69zm0 2.06h-1.68v1.78h1.68v-1.78zm-2.06-4.11h-1.68v1.68h1.68v-1.68zm-2.05-4.52a13.2 13.2 0 0 1-1.65-.19V63h1.68zm0 2.46h-1.68v1.68h1.68v-1.68zm0-2.06h-1.68v1.69h1.68v-1.69zm2.05 6.17h-1.68v1.69h1.68v-1.69zm0 2.06h-1.68v1.78h1.68v-1.78zm-2.05-4.11h-1.68v1.68h1.68v-1.68zm8.59-43.54h1.69v-1.69h-1.69v1.69zm8.23 12.33h1.68v-1.68h-1.68v1.68zm-2.06-2.05h1.68v-1.69h-1.68v1.69zm2.06 4.11h1.68V36.6h-1.68v1.69zm0-6.17h1.68v-1.69h-1.68v1.69zm-2.06 4.11h1.68v-1.68h-1.68v1.68zm2.06-6.16h1.68v-1.69h-1.68v1.69zm-2.06 8.22h1.68V36.6h-1.68v1.69zm2.06-10.28h1.68v-1.69h-1.68v1.69zm1.68-3.74h-1.68v1.68h1.68v-1.68zm-1.68 9.91h1.68v-1.69h-1.68v1.69zm-4.47.37h-.8c.1.25.21.53.31.84s.15.49.23.85H92v-1.69zm-.19 2.05q.08.39.17.86v-.86zM90.3 21.84h1.68v-1.68H90.3v1.68zm2.05 14.39h1.69v-1.68h-1.69v1.68zM67.32 55.1h-1.69v1.69h1.69V55.1zm0-2.05h-1.69v1.68h1.69v-1.68zm-1.69-4.12v1.69h1.66q-.16-.82-.27-1.69zm1.69 10.28h-1.69v1.69h1.69v-1.69zm0-8.22h-1.69v1.68h1.69v-1.68zm10.27-24.67h-1.68V28h1.2l.48-.11v-1.57zM67.32 61.27h-1.69v1.68h1.69v-1.68zm0 4.11h-1.69v1.68h1.69v-1.68zm0-2.06h-1.69v1.69h1.69v-1.69zm-1.69 5.8h1.69v-1.68h-1.69v1.68zm26.72-30.83h1.69V36.6h-1.69v1.69zm3.74-16.08h-1.68v1.69h1.68v-1.69zm-1.68 3.74h1.68v-1.68h-1.68v1.68zM90.3 23.9h1.68v-1.69H90.3v1.69zm4.11 8.22h1.68v-1.69h-1.68v1.69zm-2.06-6.17h1.69v-1.68h-1.69v1.68zm2.06 2.06h1.68v-1.69h-1.68v1.69zm0 2.06h1.68v-1.69h-1.68v1.69zm-.37-7.86h-1.69v1.69h1.69v-1.69zm-1.69 11.97h1.69v-1.69h-1.69v1.69zm0-6.17h1.69v-1.69h-1.69v1.69zm0 4.11h1.69v-1.69h-1.69v1.69zm0-2.05h1.69v-1.69h-1.69v1.69zM77.97 19.79h1.68V18.1h-1.68v1.69zm4.1 7.93a12.75 12.75 0 0 1 1.56.29h.13v-1.69h-1.69v1.4zm-4.1-1.77h1.68v-1.68h-1.68v1.68zm-2.06-4.11h1.68v-1.68h-1.68v1.68zM78 27.82a13.27 13.27 0 0 1 1.68-.19v-1.31H78v1.5zm-6.2 2.24h1c.21-.16.43-.32.65-.46v-1.22H71.8v1.69zm6.17-8.22h1.68v-1.68h-1.68v1.68zm2.05 0h1.68v-1.68h-1.68v1.68zm0 4.11h1.68v-1.68h-1.68v1.68zM80 27.62h.33c.46 0 .91 0 1.35.07v-1.37H80v1.3zm-2.03-3.72h1.68v-1.69h-1.68v1.69zm-3.46-8.52h1.68v-1.69h-1.68v1.69zM49.44 50.82h1.69v-1.69h-1.69v1.69zm2.84 10.24h1.69v-1.68h-1.69v1.68zM71.8 21.84h1.68v-1.68H71.8v1.68zm2.05 7.53a11.59 11.59 0 0 1 1.69-.85v-.14h-1.69v1zm0-1.36h1.69v-1.69h-1.69v1.69zm-2.05-2.06h1.68v-1.68H71.8v1.68zm0 2.06h1.68v-1.69H71.8v1.69zm2.05-6.17h1.69v-1.68h-1.69v1.68zm2.06 4.11h1.68v-1.68h-1.68v1.68zm0-2.05h1.68v-1.69h-1.68v1.69zm13.9 8.22h.12v-1.68h-1.66a10.93 10.93 0 0 1 1.53 1.68zm-3.62-10.28h1.68v-1.68h-1.68v1.68zm2.05 6.17h1.69v-1.69h-1.69v1.69zm2.06-2.06h1.68v-1.68H90.3v1.68zm-4.11-6.16h1.68V18.1h-1.68v1.69zm2.05 10.28h1.69v-1.69h-1.69v1.69zm0-8.23h1.69v-1.68h-1.69v1.68zm2.06 8.23h1.68v-1.69H90.3v1.69zm0-2.06h1.68v-1.69H90.3v1.69zm0 4.83a12.41 12.41 0 0 1 .63 1.16l.09.21h1v-1.72H90.3v.35zm-8.22-6.89h1.68v-1.68h-1.68v1.68zm8.22 6.17h1.68v-1.69H90.3v1.69zm-4.48-3.74h-1q.51.19 1 .42v-.42zm-3.74-8.59h1.68V18.1h-1.68v1.69zm2.05 8.22h1.69v-1.69h-1.69v1.69zm-2.05-6.17h1.68v-1.68h-1.68v1.68zm0 2.06h1.68v-1.69h-1.68v1.69zm2.05 2.05h1.69v-1.68h-1.69v1.68zm2.06 2.06h1.68v-1.69h-1.68v1.69zm0 .99a10.63 10.63 0 0 1 1.65 1.08v-1.7h-1.65V29zm-2.06-5.1h1.69v-1.69h-1.69v1.69zm0-4.11h1.69V18.1h-1.69v1.69zm0 2.05h1.69v-1.68h-1.69v1.68zM59.09 53.05h-1.68v1.68h1.68v-1.68zm0 4.11h-1.68v1.68h1.68v-1.68zm0-2.06h-1.68v1.69h1.68V55.1zm0-6.16h-1.68v1.68h1.68v-1.68zm.38 11.96h1.68v-1.69h-1.68v1.69zm0-2.06h1.68v-1.68h-1.68v1.68zM61.15 28v-1.68h-1.37l-.32.39V28zm-2.05-.83c-.21.27-.41.55-.61.84h.61v-.84zm2.05-2.34c-.36.36-.71.74-1 1.12h1v-1.12zm-4.11 26.16h-1.69v1.68h1.69v-1.68zm2.05-18.5h-1.68v1.69h1.68v-1.69zm0 8.22h-1.68v1.69h1.68v-1.69zm0 4.11h-1.68v1.69h1.68v-1.69zm0-8.22h-1.68v1.69h1.68V36.6zm-2.05 16.45h-1.69v1.68h1.69v-1.68zm2.43 3.74h1.68V55.1h-1.68v1.69zm3.73-26.36h-1.68v1.69h1.68v-1.69zm0 4.12h-1.68v1.68h1.68v-1.68zm0-2.06h-1.68v1.69h1.68v-1.69zm-2.75 32.89c.23.25.47.5.7.74v-.74zM63.2 36.6h-1.68v1.69h1.68V36.6zm0 4.11h-1.68v1.69h1.68v-1.69zm0-12.33h-1.68v1.69h1.68v-1.69zm-3.73 22.24h1.68v-1.68h-1.68v1.68zm0 2.05h1.68v-1.68h-1.68v1.68zm0-10.27h1.68v-1.69h-1.68v1.69zm0-8.22h1.68v-1.69h-1.68v1.69zm0 6.16h1.68v-1.68h-1.68v1.68zM71.8 71.55v1c.55.17 1.11.31 1.69.45v-1.45zm3.74 0h-1.69v1.52c.45.1 1.07.15 1.67.22v-1.74zm-9.91-2.06v.25c.54.34 1.11.66 1.69 1v-1.25z"/><circle class="cls-3" cx="65.26" cy="69.49"/><path class="cls-2" d="M69.37 71.18v-1.69h-1.68v1.4l.58.28zm-.29.37l.29.12v-.12zm.66 0v.27c.55.22 1.11.42 1.69.61v-.87zM63.2 46.88h-1.68v1.68h1.68v-1.68zm2.06 22.24v-1.68h-1.68v.86q.55.43 1.13.83zm-8.22-34.57h-1.69v1.68h1.69v-1.68zm0 8.22h-1.69v1.68h1.69v-1.68zm1.73 20.55l.32.43v-.43zM57 58.84v-1.68h-1.6c.22.57.46 1.14.72 1.69zm5.54 8.6l.67.56v-.56zM59.1 63v-1.73h-1.69c.35.58.72 1.13 1.1 1.68zm2.05 2v-1.68h-1.68v.9q.32.4.66.78zm2.06 2.06v-1.68h-1.69v1.12l.61.57zm2.05-28.4h-1.68v1.68h1.68v-1.68zm0 2.05h-1.68v1.69h1.68v-1.69zm0-8.22h-1.68v1.69h1.68v-1.69zm0 10.28h-1.68v1.68h1.68v-1.68zm0 8.22h-1.68v1.68h1.68v-1.68zm0-20.56h-1.68v1.69h1.68v-1.69zm0 22.62h-1.68v1.68h1.68v-1.68zm0-4.11h-1.68v1.68h1.68v-1.68zm0-2.06h-1.68v1.68h1.68v-1.68zm0-2.06h-1.68v1.69h1.68v-1.69zM63.2 55.1h-1.68v1.69h1.68V55.1zm0 4.11h-1.68v1.69h1.68v-1.69zm-1.68 5.8h1.68v-1.69h-1.68v1.69zm1.68-14.02h-1.68v1.68h1.68v-1.68zm0 2.06h-1.68v1.68h1.68v-1.68zm0 4.11h-1.68v1.68h1.68v-1.68zm2.06-2.06h-1.68v1.69h1.68V55.1zm-2.06 6.17h-1.68v1.68h1.68v-1.68zM63.21 23q-.56.46-1.09.94h1.09V23zm23.69-5.27l-.72-.16v.16zm5.1 2.06v-.3c-.55-.26-1.11-.49-1.68-.71v1zm-3.76 0h1.68v-1.16c-.53-.19-1.07-.37-1.62-.53h-.06v1.68zm-2.42-2.06v-.23c-.55-.11-1.12-.2-1.69-.27v.5zm-6.17 0V17c-.57 0-1.13 0-1.68.1v.6zm4.11 0v-.54c-.56-.06-1.12-.11-1.69-.14v.68zm14.76 6.54V26h1.69v-.14q-.66-.8-1.4-1.54zm-2.06-.37h1.68v-.26q-.8-.75-1.68-1.42v1.68zm-3.87-4.11l-.24-.12v.12zM96 21.84c-.5-.37-1-.71-1.57-1v1zM65.26 57.16h-1.68v1.68h1.68v-1.68zm27.09-37v1.69H94v-1.28l-.74-.41zm-27.09 1.28l-.59.4h.59v-.4zm0 41.88h-1.68v1.69h1.68v-1.69zm0-39.42v-1.69h-1.1l-.59.44v1.25zm-1.68 43.16h1.68v-1.68h-1.68v1.68zm1.68-7.85h-1.68v1.69h1.68v-1.69zm0 2.06h-1.68v1.68h1.68v-1.68zm8.22-41.48V18.1h-.88l-.81.24v1.45zm-6.16 2.05v-1.62q-.87.46-1.69 1v.64zm2.05-2.61q-.62.26-1.22.56h1.22v-.56zm2.06.56v-1.33c-.57.19-1.14.39-1.69.62v.7zm-2.37-4.84h-1.69v1.62h1.69v-1.62zM36.29 26.24h1.69v-1.68h-1.69v1.68zM46.11 31h1.68v-1.68h-1.68V31zm.31-4.18h1.68v-1.68h-1.68v1.68zm-7.39 11.23h1.69v-1.68h-1.69v1.68zm7.01-1.89h1.69v-1.69h-1.69v1.69zm6.65-4.67h1.68v-1.68h-1.68v1.68zm-9.51-5.78h1.69v-1.68h-1.69v1.68zm2.86 17.83h1.69v-1.68h-1.69v1.68zm-1.36-24.39h1.68v-1.68h-1.68v1.68zm1.55-6.76h1.69v-1.68h-1.69v1.68zm7.57-3.91h1.69V6.8H53.8v1.68zm-1.93 13.88h1.69v-1.68h-1.69v1.68z"/><path class="cls-2" d="M69.06 14.95h-1.69v1.62h1.69v-1.62zm-3.71 3.33h-1.69v1.62h1.68v-1.62zM51.03 41.03h1.68v-1.68h-1.68v1.68zM36.29 26.24h1.69v-1.68h-1.69v1.68zM46.11 31h1.68v-1.68h-1.68V31zm-7.08 7.05h1.69v-1.68h-1.69v1.68zm7.01-1.89h1.69v-1.69h-1.69v1.69zm6.65-4.67h1.68v-1.68h-1.68v1.68zm-12.1-1.95h1.68v-1.68h-1.68v1.68zm5.45 14h1.69v-1.68h-1.69v1.68zm-1.36-24.39h1.68v-1.68h-1.68v1.68zm1.55-6.76h1.69v-1.68h-1.69v1.68zm7.57-3.91h1.69V6.8H53.8v1.68zm-1.93 13.88h1.69v-1.68h-1.69v1.68zm3.8-2.6h1.69v-1.68h-1.69v1.68zm.75 6.05h1.68v-1.68h-1.68v1.68zm35.12 28.42c-1.66 5.54-5.65 8.66-11.26 8.66a13.63 13.63 0 0 1-2.35-.2V65H82v4.11h2.13v4.21c11.37-1.37 20.32-8.8 21.21-22.27H92.06c-.14 1-.3 2.07-.52 3.15zm4.91-27.91v4.08h-2v2.1H92.1v-4.2h-7.44a10.92 10.92 0 0 1 6.2 5.63 13.29 13.29 0 0 1 .56 1.41 19.65 19.65 0 0 1 .64 3h13.06a21.66 21.66 0 0 0-4.54-12zm-59.16 76.19h3v.45H39.1v3.28h-.62v-3.28h-1.19v-.45zm3.59 0h.62v1.63a.54.54 0 0 0 .19 0 .4.4 0 0 0 .17-.11 2.13 2.13 0 0 0 .2-.25c.08-.11.34-.52.78-1.24h.65l-.74 1.12a4 4 0 0 1-.45.57l1.22 2h-.69l-1-1.72h-.38v1.65h-.62v-3.73zm4.2 3.8a1.1 1.1 0 0 1-.84-.3 1.13 1.13 0 0 1-.28-.82 1.1 1.1 0 0 1 .38-.89 2 2 0 0 1 1.23-.33h.83v-.21a.9.9 0 0 0-.19-.65.81.81 0 0 0-.61-.2 1 1 0 0 0-.61.14.6.6 0 0 0-.23.45l-.65-.06c.11-.67.61-1 1.5-1a1.56 1.56 0 0 1 1.06.32 1.23 1.23 0 0 1 .35.94v1.6a1 1 0 0 0 .07.42.29.29 0 0 0 .28.14.75.75 0 0 0 .2 0v.39a2.18 2.18 0 0 1-.48.06.64.64 0 0 1-.5-.18 1 1 0 0 1-.18-.57 1.51 1.51 0 0 1-.55.61 1.61 1.61 0 0 1-.77.18zm.14-.47a1.23 1.23 0 0 0 .61-.16 1.18 1.18 0 0 0 .42-.43 1.11 1.11 0 0 0 .15-.55v-.31h-.68a2.16 2.16 0 0 0-.66.09.72.72 0 0 0-.35.25.8.8 0 0 0-.12.45.58.58 0 0 0 .63.64zm3.48-3.33v1.57h1.68v-1.57H51v3.73h-.62v-1.71H48.7v1.71h-.63v-3.73h.63zm3.87 0v3l1.72-3h.68v3.73h-.59v-2.97l-1.75 3H52v-3.73zm7.71.49h-1.06c-.08.62-.18 1.17-.28 1.63a7.25 7.25 0 0 1-.37 1.19h1.71V103zm1.12 4.69h-.56v-1.41H58v1.41h-.56v-1.86h.41a4.44 4.44 0 0 0 .45-1.22 19.53 19.53 0 0 0 .35-2.06h2.25v3.28h.5v1.86zm3.14-1.45V103h-1.29c-.13 1-.24 1.67-.32 2a3.5 3.5 0 0 1-.23.79.94.94 0 0 1-.32.4.86.86 0 0 1-.49.13 1.24 1.24 0 0 1-.33 0v-.45a.75.75 0 0 0 .24 0 .34.34 0 0 0 .3-.19 2.21 2.21 0 0 0 .21-.66q.1-.47.21-1.38l.16-1.12h2.47v3.73zm2.96-1.59l-1.08 1.58h-.71l1.19-1.63a1 1 0 0 1-.86-1.07.88.88 0 0 1 .37-.78 1.91 1.91 0 0 1 1.08-.25H69v3.73h-.62v-1.58zm.87-1.71h-.81a1.1 1.1 0 0 0-.66.16.58.58 0 0 0-.2.48.63.63 0 0 0 .18.49 1 1 0 0 0 .61.16h.87v-1.28zm4.13-.43v1.39a.5.5 0 0 0 .57.56 3.72 3.72 0 0 0 .95-.16v-1.78h.62v3.73H74v-1.59l-.27.1a2.52 2.52 0 0 1-.94.2.88.88 0 0 1-.69-.27 1.05 1.05 0 0 1-.25-.76v-1.41zm3.72 0v3l1.72-3h.68v3.73H78v-2.97l-1.75 3h-.66v-3.73zm3.78 1.84a2 2 0 0 0 .24 1.11.79.79 0 0 0 .71.35.85.85 0 0 0 .55-.18.83.83 0 0 0 .28-.55h.63a1.32 1.32 0 0 1-.41.92 1.67 1.67 0 0 1-2.18-.17 2.21 2.21 0 0 1-.41-1.45 2.18 2.18 0 0 1 .41-1.43 1.45 1.45 0 0 1 1.19-.49 1.51 1.51 0 0 1 1 .3 1.3 1.3 0 0 1 .47.82h-.64a.8.8 0 0 0-.24-.49.77.77 0 0 0-.56-.18.78.78 0 0 0-.71.33 2 2 0 0 0-.23 1.1zm2.74-1.84h2.99v.45h-1.18v3.28h-.63v-3.28h-1.18v-.45zm5.01 1.57a1.86 1.86 0 0 1 1.07.25.92.92 0 0 1 .36.81 1 1 0 0 1-.37.81 1.72 1.72 0 0 1-1.06.28h-1.41v-3.73H87v1.58zM87 105.8h.7a1.1 1.1 0 0 0 .66-.16.59.59 0 0 0 .2-.49.54.54 0 0 0-.2-.47 1.08 1.08 0 0 0-.66-.16H87v1.29zm2.86.44v-3.73h.61v3.73zm3.84 0l-1.01-1.54-1.01 1.54h-.67l1.33-1.93-1.26-1.8h.68l.93 1.44.93-1.44h.69l-1.26 1.8 1.34 1.93h-.69zm5.61-3.24h-1.05c-.08.62-.18 1.17-.28 1.63a7.25 7.25 0 0 1-.37 1.19h1.71V103zm1.12 4.69h-.56v-1.41h-2.81v1.41h-.56v-1.86h.41a4.43 4.43 0 0 0 .45-1.22 19.49 19.49 0 0 0 .35-2.06h2.22v3.28h.5v1.86zm1.22-5.18v3l1.72-3h.63v3.73h-.59v-2.97l-1.75 3H101v-3.73zm4.8 0a1.81 1.81 0 0 1 1 .24.79.79 0 0 1 .35.69.77.77 0 0 1-.2.54 1 1 0 0 1-.57.28 1.05 1.05 0 0 1 .66.28.8.8 0 0 1 .23.59.94.94 0 0 1-.38.79 1.71 1.71 0 0 1-1 .28H105v-3.73zm-.83 3.27h.82a1.12 1.12 0 0 0 .66-.15.54.54 0 0 0 .2-.47.57.57 0 0 0-.2-.49 1.33 1.33 0 0 0-.7-.14h-.78v1.25zm0-2.81v1.11h.75a1.18 1.18 0 0 0 .63-.08.48.48 0 0 0 .19-.43.49.49 0 0 0-.18-.42 1 1 0 0 0-.59-.13zm3.97 3.34a1.1 1.1 0 0 1-.84-.3 1.13 1.13 0 0 1-.28-.82 1.1 1.1 0 0 1 .38-.89 2 2 0 0 1 1.23-.33h.83v-.21a.9.9 0 0 0-.19-.65.81.81 0 0 0-.61-.2 1 1 0 0 0-.61.14.6.6 0 0 0-.23.45l-.65-.06c.11-.67.61-1 1.5-1a1.56 1.56 0 0 1 1.06.32 1.23 1.23 0 0 1 .35.94v1.6a1 1 0 0 0 .07.42.29.29 0 0 0 .28.14.75.75 0 0 0 .2 0v.39a2.18 2.18 0 0 1-.48.06.64.64 0 0 1-.5-.18 1 1 0 0 1-.18-.57 1.51 1.51 0 0 1-.55.61 1.61 1.61 0 0 1-.77.18zm.14-.47a1.23 1.23 0 0 0 .61-.16 1.18 1.18 0 0 0 .42-.43 1.11 1.11 0 0 0 .15-.55v-.31h-.68a2.16 2.16 0 0 0-.66.09.72.72 0 0 0-.35.25.8.8 0 0 0-.12.45.58.58 0 0 0 .63.64zm3.47-3.33v1.57h1.68v-1.57h.62v3.73h-.62v-1.71h-1.68v1.71h-.62v-3.73h.62zm6.42 1.86a2.12 2.12 0 0 1-.43 1.46 1.6 1.6 0 0 1-1.25.48 1.53 1.53 0 0 1-1.24-.5 2.2 2.2 0 0 1-.42-1.44q0-1.93 1.67-1.93a1.57 1.57 0 0 1 1.26.47 2.23 2.23 0 0 1 .4 1.46zm-.65 0a2.08 2.08 0 0 0-.23-1.12.84.84 0 0 0-.77-.35.89.89 0 0 0-.78.35 2 2 0 0 0-.25 1.12 2.1 2.1 0 0 0 .24 1.11.84.84 0 0 0 .76.37.89.89 0 0 0 .8-.36 2 2 0 0 0 .24-1.12zm2.9-1.86a1.81 1.81 0 0 1 1 .24.79.79 0 0 1 .35.69.77.77 0 0 1-.2.54 1 1 0 0 1-.57.28 1.05 1.05 0 0 1 .66.28.8.8 0 0 1 .23.59.94.94 0 0 1-.38.79 1.71 1.71 0 0 1-1 .28h-1.54v-3.73zm-.83 3.27h.82a1.12 1.12 0 0 0 .66-.15.54.54 0 0 0 .2-.47.57.57 0 0 0-.2-.49 1.33 1.33 0 0 0-.7-.14H121v1.25zm0-2.81v1.11h.75a1.18 1.18 0 0 0 .63-.13.48.48 0 0 0 .19-.43.49.49 0 0 0-.18-.42 1 1 0 0 0-.59-.13z"/></svg>