<svg id="Слой_1" data-name="Слой 1" xmlns="http://www.w3.org/2000/svg" viewBox="0 0 398 362"><defs><style>.cls-1{fill:#0085ad}.cls-1,.cls-2,.cls-3,.cls-4,.cls-5,.cls-6,.cls-7{fill-rule:evenodd}.cls-2{fill:#3dab9c}.cls-3{fill:#46b8d9}.cls-4{fill:#1bb5d6}.cls-5{fill:#7fc5ab}.cls-6{fill:#20a581}.cls-7{fill:#81c9ca}</style></defs><title>logo</title><path class="cls-1" d="M345.55 278.32l-.47.36a2.55 2.55 0 0 0-.93-.76 2.71 2.71 0 0 0-1.19-.26 2.63 2.63 0 0 0-1.31.34 2.43 2.43 0 0 0-.93.91 2.52 2.52 0 0 0-.33 1.28 2.41 2.41 0 0 0 .74 1.8 2.58 2.58 0 0 0 1.87.72 2.63 2.63 0 0 0 2.08-1l.47.35a3 3 0 0 1-1.1.87 3.48 3.48 0 0 1-1.48.31 3 3 0 0 1-3.2-3.13 2.91 2.91 0 0 1 .91-2.18 3.14 3.14 0 0 1 2.28-.88 3.37 3.37 0 0 1 1.5.32 2.92 2.92 0 0 1 1.09.91zm4.28-.66a2.53 2.53 0 0 0-2.16 1.26 2.55 2.55 0 0 0-.33 1.29 2.48 2.48 0 0 0 2.49 2.49 2.53 2.53 0 0 0 1.28-.33 2.39 2.39 0 0 0 .92-.91 2.54 2.54 0 0 0 .33-1.28 2.48 2.48 0 0 0-.33-1.27 2.45 2.45 0 0 0-.93-.91 2.5 2.5 0 0 0-1.27-.34zm0-.57a3.08 3.08 0 0 1 2.25.89 3.11 3.11 0 0 1 0 4.39 3 3 0 0 1-2.2.9 3 3 0 0 1-2.22-.9 2.94 2.94 0 0 1-.9-2.17 3.14 3.14 0 0 1 .41-1.57 3.06 3.06 0 0 1 2.67-1.54zm11.5 3.09a2.37 2.37 0 0 0-.75-1.8 2.45 2.45 0 0 0-1.74-.71 2.39 2.39 0 0 0-1.72.72 2.45 2.45 0 0 0-.74 1.82 2.37 2.37 0 0 0 .74 1.78 2.49 2.49 0 0 0 3.49 0 2.43 2.43 0 0 0 .73-1.81zm-6.59-.31h1a3.05 3.05 0 0 1 3-2.78 3 3 0 0 1 2.26.91 3 3 0 0 1 .9 2.2 3 3 0 0 1-.89 2.19 3 3 0 0 1-2.19.9 3 3 0 0 1-3.08-2.86h-1v2.84h-.59v-6.18h.59v2.79zm8.31-2.06a2.16 2.16 0 0 1 1.65-.72 2 2 0 0 1 1.29.42 1.33 1.33 0 0 1 .51 1.08 1.39 1.39 0 0 1-1 1.35 1.52 1.52 0 0 1 1.25 1.56 1.63 1.63 0 0 1-.56 1.29 2.27 2.27 0 0 1-1.54.49 2.52 2.52 0 0 1-1.19-.26 2.73 2.73 0 0 1-.95-.92l.49-.27a2.28 2.28 0 0 0 .83.77 2 2 0 0 0 .8.17 1.64 1.64 0 0 0 1-.32 1.27 1.27 0 0 0 .28-1.53 1.11 1.11 0 0 0-.41-.4 1.56 1.56 0 0 0-.5-.19 5.38 5.38 0 0 0-.78 0h-.11v-.52h.21q1.41 0 1.41-1.06a1 1 0 0 0-.32-.78 1.18 1.18 0 0 0-.82-.29 1.72 1.72 0 0 0-1.2.54l-.43-.36zm8.01 5.46l.88-6.2h.13l2.58 5.14 2.56-5.14h.1l.91 6.2h-.61l-.64-4.22-2.24 4.22h-.17l-2.27-4.25-.61 4.25h-.62zm-2.06-3.9a.76.76 0 1 1-.76.76.76.76 0 0 1 .76-.76zm-25.24-19.06a7.16 7.16 0 0 1 6.62-2.7l.34-2.47a9.63 9.63 0 1 0 7.62 5.91L356 262a7.15 7.15 0 1 1-12.27-1.68z"/><path class="cls-1" d="M375.93 264a6.45 6.45 0 0 0-.11-.68v-.09a6.26 6.26 0 0 0-2-3.35 5.15 5.15 0 0 0-6.83 0 6.26 6.26 0 0 0-2 3.35v.08c0 .19-.07.38-.1.58s0 .41-.05.61v9h-2.29v-9c0-.2 0-.41-.05-.61s-.06-.39-.1-.58v-.08a6.26 6.26 0 0 0-2-3.35 5.15 5.15 0 0 0-6.83 0 6.26 6.26 0 0 0-2 3.35l-.08.33h-2.3l.1-.53a9 9 0 0 1 2.74-5 7.35 7.35 0 0 1 5-2 7.12 7.12 0 0 1 4.1 1.3 8.47 8.47 0 0 1 2.54 2.86 8.47 8.47 0 0 1 2.57-2.85 7.27 7.27 0 0 1 4.14-1.31 7.36 7.36 0 0 1 5 2 9 9 0 0 1 2.68 4.7l.07.36v.1l.07.39v9.97H376v-8.77a6.89 6.89 0 0 0 0-.76zM108 270h-7.89q-1.84-6.73-9.42-6.73a9.4 9.4 0 0 0-4.46 1.1 12.29 12.29 0 0 0-5.5 6.17 22.31 22.31 0 0 0 1.1 18.89q3.24 5.38 8.93 5.38 7.15 0 9.23-6.48h7.95a18.59 18.59 0 0 1-6.05 9.9 16.92 16.92 0 0 1-11 3.67 16.94 16.94 0 0 1-14.43-7.15q-4.71-6.36-4.71-15.9a25.51 25.51 0 0 1 4.77-15.65 16.86 16.86 0 0 1 14.25-7 17.19 17.19 0 0 1 11.19 3.67A17.88 17.88 0 0 1 108 270zm32.07 31.05h-7.21v-19.02h-13.64v19.02h-7.21v-44.02h7.21v18.16h13.64v-18.16h7.21v44.02zm13.79 0h-7.46v-34.11h7.46v34.11z"/><path class="cls-2" d="M153.86 264.19h-7.46v-7.36h7.46v7.36z"/><path class="cls-1" d="M264.8 301.05h-7.45v-34.11h7.45v34.11z"/><path class="cls-2" d="M264.8 264.19h-7.45v-7.36h7.45v7.36z"/><path class="cls-1" d="M182.42 288.39q0 6.05-2.94 9.66-3.24 3.85-9.17 3.85t-9-3.85q-3-3.61-3-9.6h7.34a8.76 8.76 0 0 0 1.16 4.34q1.34 2.39 3.42 2.39a4.14 4.14 0 0 0 3.61-2.32 8 8 0 0 0 1.22-4.34q0-4-4.1-6.85-3.85-2.32-7.7-4.71a11 11 0 0 1-4.1-8.93 12 12 0 0 1 3.09-8.65q3.09-3.21 8.53-3.21 5.26 0 8.19 3.24 2.75 3.12 2.75 8.44h-7.15a6.88 6.88 0 0 0-1.22-3.46 3.29 3.29 0 0 0-2.81-1.62 3.53 3.53 0 0 0-3.06 1.56 6 6 0 0 0-1.1 3.58 6.8 6.8 0 0 0 1.22 3.76 9.15 9.15 0 0 0 3.36 3q6.17 3.42 7.95 5.2a11.21 11.21 0 0 1 3.55 8.5zm23.36-24.52h-7.28v37.18h-7.34v-37.18h-7.33v-6.84h21.95v6.84zm22.61 37.18h-19.87v-44.02h19.87v6.84h-12.47v11.5h12.47v6.72h-12.47v11.99h12.47v6.97zm24.56-37.18h-7.28v37.18h-7.33v-37.18H231v-6.84h21.95v6.84zm44.35 37.18h-8.2l-11.98-22.2v22.2h-7.21v-44.02h7.21v21.15l12.17-21.15h7.64l-13.02 21.15 13.39 22.87zm35.88-.05h-7.63l-2.87-9.9h-13.61l-3 9.9h-7.51l14.12-44h6.42l14.06 44zm-12.42-16l-4.83-17.67L311 285zm-151.52-94.95h-5.1v5.11h5.1v-5.11z"/><path class="cls-2" d="M169.24 196.28h-5.1v5.11h5.1v-5.11z"/><path class="cls-1" d="M157.91 126.64h4.78c.1-.58.21-1.15.32-1.72v-3.39h-5.11v5.11zm11.33 57.18h-5.1v5.11h5.1v-5.11zm0 18.69h-5.1v5.11h5.1v-5.11zm0-27.08q-1.11-1.94-2.06-4.06h-3v5.11h5.1v-1zm0 33.31h-5.1v5.1h5.1v-5.1zm-11.33-75.87h3.93c.17-1.74.39-3.45.66-5.11h-4.59v5.11zm0 12.46h3.6c0-1.23-.08-2.47-.08-3.73v-1.37h-3.54v5.11zm0-6.23h3.56c0-1.74.14-3.44.28-5.11h-3.84v5.11zm0 12.46H162q-.28-2.5-.41-5.11h-3.65v5.11zm6.54 12.44c-.11-.36-.2-.72-.31-1.08V164zm4.79 13.59h-5.1v5.11h5.1v-5.11zm6.24 6.29l-.05-.05h-5.06v5.11h5.11v-5.05zm6.23 18.63h-5.11v5.11h5.11v-5.11zm0 12.46h-5.11v5.11h5.11v-5.11zm0-6.23h-5.11v5.1h5.11v-5.1zm0-12.46h-5.11v5.11h5.11v-5.11zm0-6.23h-5.11v5.11h5.11v-5.11zm-6.23 6.23h-5.11v5.11h5.11v-5.11zm0-6.23h-5.11v5.11h5.11v-5.11zm0 18.69h-5.11v5.1h5.11v-5.1zm0 6.23h-5.11v5.11h5.11v-5.11z"/><path class="cls-3" d="M175.48 202.51h-5.11v5.11h5.11v-5.11z"/><path class="cls-1" d="M170.37 182.7h4a42.05 42.05 0 0 1-3.85-5.11h-.19v5.11zm-6.23-74.7h5l.11-.2v-4.91h-5.1V108z"/><path class="cls-2" d="M164.14 70.58h5.1v-5.11h-5.1v5.11z"/><path class="cls-1" d="M170.37 105.89q1-1.58 2.1-3h-2.1v3zm-6.23-16.62h5.1v-5.11h-5.1v5.11zm0 6.23h5.1v-5.11h-5.1v5.11zm6.23 6.23h3c.68-.84 1.38-1.65 2.12-2.42v-2.69h-5.11v5.1z"/><path class="cls-2" d="M170.37 70.58h5.11v-5.11h-5.11v5.11z"/><path class="cls-1" d="M170.37 89.27h5.11v-5.11h-5.11v5.11zm0-6.23h5.11v-5.11h-5.11v5.11zm-12.46 37.37h5.11v-5.11h-5.11v5.11zm12.46-24.91h5.11v-5.11h-5.11v5.11z"/><path class="cls-3" d="M157.91 95.5h5.11v-5.11h-5.11v5.11z"/><path class="cls-1" d="M157.91 101.72h5.11v-5.1h-5.11v5.1zm6.23 0h5.1v-5.1h-5.1v5.1zm-6.23 12.46h5.11v-5.1h-5.11v5.1zm18.69 74.75h4.87a36.61 36.61 0 0 1-4.87-3.93v3.94zm-12.46-18.69h2.54q-1-2.45-1.88-5.11h-.66v5.11z"/><path class="cls-2" d="M157.91 76.81h5.11V71.7h-5.11v5.11z"/><path class="cls-1" d="M164.14 114.18h2a52.14 52.14 0 0 1 2.35-5.1h-4.38v5.1zm0 6.07q.71-2.56 1.6-5h-1.6v5zm48.71 73.52a36.89 36.89 0 0 1-5.11 1v.39h5.11v-1.39zm0 8.74h-5.11v5.11h5.11v-5.11zM176.6 98.2c.57-.55 1.15-1.07 1.74-1.58h-1.74v1.58zm36.25 98.08h-5.11v5.11h5.11v-5.11zm-6.23 6.23h-5.11v5.11h5.11v-5.11zm-12.46 0h-5.1v5.11h5.1v-5.11zm0 6.23h-5.1v5.1h5.1v-5.1zm0-12.46h-5.1v5.11h5.1v-5.11zm6.23 24.92h-5.1v5.41h5.1v-5.41zm0-6.23h-5.1v5.11h5.1v-5.11zm-6.23-20.71a36.66 36.66 0 0 1-5.11-1.45v2.35h5.11v-.9z"/><path class="cls-3" d="M194.16 214.97h-5.1v5.11h5.1v-5.11z"/><path class="cls-1" d="M187.94 208.74h-5.11v5.1h5.11v-5.1zm6.22 12.46h-5.1v5.41h5.1v-5.41zm-6.22-18.69h-5.11v5.11h5.11v-5.11zm0-6.23h-5.11v5.11h5.11v-5.11zm-.01-3.91a35.28 35.28 0 0 1-4.69-2.32h-.42v5.11h5.11v-2.79zm.01 22.6h-5.11v5.11h5.11v-5.11zm18.68-18.69h-5.11v5.11h5.11v-5.11zm0-1.38c-1.34.13-2.7.22-4.1.22h-1v.07h5.1v-.26zm6.23 13.84h-5.11v5.1h5.11v-5.1zm0 6.23h-5.11v5.11h5.11v-5.11zm0 6.23h-5.11v5.41h5.11v-5.41zm-6.23-12.46h-5.11v5.1h5.11v-5.1zm-6.23-13.68a40 40 0 0 1-5.11-.58v.68h5.11v-.1zm0 7.45h-5.1v5.11h5.1v-5.11zm0-6.23h-5.1v5.11h5.1v-5.11zm6.23 18.69h-5.11v5.11h5.11v-5.11zm0 6.23h-5.11v5.41h5.11v-5.41zm-6.23-12.46h-5.1v5.1h5.1v-5.1z"/><path class="cls-3" d="M226.43 76.81h5.11V71.7h-5.11v5.11z"/><path class="cls-1" d="M251.35 114.18h5.1v-5.1h-5.1v5.1zm-6.23-6.23h5.1v-5.1h-5.1v5.1zm6.23 12.46h5.1v-5.11h-5.1v5.11zm0-18.69h5.1v-5.1h-5.1v5.1zm-6.23 12.46h5.1v-5.1h-5.1v5.1zm6.23-18.68h5.1v-5.11h-5.1v5.11zm-6.23 24.91h5.1v-5.11h-5.1v5.11zm6.23-31.14h5.1v-5.11h-5.1v5.11zm5.1-11.34h-5.1v5.11h5.1v-5.11zm-5.1 30.02h5.1v-5.1h-5.1v5.1zm-13.59 1.13h-2.41c.31.76.63 1.6.94 2.53.2.61.45 1.48.71 2.57h.77v-5.1zm-.51 6.22q.25 1.18.52 2.62v-2.62zm-4.59-44.72h5.1v-5.11h-5.1v5.11zm6.23 43.6H244v-5.1h-5.11v5.1zm-75.87 57.19h-5.11v5.1h5.11v-5.1zm0-6.23h-5.11v5.1h5.11v-5.1zm-5.11-12.46v5.11h5q-.49-2.49-.82-5.11zm5.11 31.14h-5.11v5.11h5.11v-5.11zm0-24.91h-5.11v5.1h5.11v-5.1zm31.14-74.75h-5.11v5.11h3.65c.48-.12 1-.24 1.46-.34v-4.77zm-31.14 105.89h-5.11v5.11h5.11v-5.11zm0 12.46h-5.11v5.11h5.11v-5.11zm0-6.23h-5.11v5.11h5.11v-5.11zm-5.11 17.56h5.11v-5.1h-5.11v5.1zm80.98-93.43H244v-5.11h-5.11v5.11zm11.33-48.71h-5.1v5.11h5.1V71.7zm-5.1 11.34h5.1v-5.11h-5.1v5.11zm-12.46-6.23h5.1V71.7h-5.1v5.11zm12.46 24.91h5.1v-5.1h-5.1v5.1zm-6.23-18.68H244v-5.11h-5.11v5.11zm6.23 6.23h5.1v-5.11h-5.1v5.11zm0 6.23h5.1v-5.11h-5.1v5.11zM244 71.7h-5.11v5.11H244V71.7zm-5.11 36.25H244v-5.1h-5.11v5.1zm0-18.68H244v-5.11h-5.11v5.11zm0 12.45H244v-5.1h-5.11v5.1zm0-6.22H244v-5.11h-5.11v5.11zm-43.6-31.15h5.1v-5.11h-5.1v5.11zm12.45 24.04a38.64 38.64 0 0 1 4.72.88h.39v-5.11h-5.11v4.23zm-12.45-5.35h5.1v-5.11h-5.1v5.11z"/><path class="cls-3" d="M189.06 70.58h5.1v-5.11h-5.1v5.11z"/><path class="cls-1" d="M195.29 88.71a40.22 40.22 0 0 1 5.11-.58v-4h-5.11v4.55zM176.6 95.5h3.15c.64-.49 1.29-1 2-1.4v-3.71h-5.15v5.11zm18.69-24.92h5.1v-5.11h-5.1v5.11z"/><path class="cls-3" d="M201.51 70.58h5.11v-5.11h-5.11v5.11zm0 12.46h5.11v-5.11h-5.11v5.11z"/><path class="cls-1" d="M201.51 88.1h1c1.4 0 2.76.08 4.1.21v-4.15h-5.1v3.94zm-6.22-11.29h5.1V71.7h-5.1v5.11zm-10.48-25.82h5.11v-5.11h-5.11v5.11zm-75.96 107.39h5.1v-5.1h-5.1v5.1z"/><path class="cls-3" d="M117.45 189.44h5.11v-5.11h-5.11v5.11z"/><path class="cls-2" d="M176.6 70.58h5.11v-5.11h-5.11v5.11z"/><path class="cls-1" d="M182.83 93.39a35.13 35.13 0 0 1 5.11-2.58v-.43h-5.11v3zm0-4.12h5.11v-5.11h-5.11v5.11z"/><path class="cls-3" d="M176.6 83.04h5.11v-5.11h-5.11v5.11z"/><path class="cls-1" d="M176.6 89.27h5.11v-5.11h-5.11v5.11z"/><path class="cls-2" d="M182.83 70.58h5.11v-5.11h-5.11v5.11z"/><path class="cls-1" d="M189.06 83.04h5.1v-5.11h-5.1v5.11zm0-6.23h5.1V71.7h-5.1v5.11zm42.11 24.92h.36v-5.1h-5a33.11 33.11 0 0 1 4.65 5.1zM220.2 70.58h5.11v-5.11h-5.11v5.11zm6.23 18.69h5.11v-5.11h-5.11v5.11z"/><path class="cls-2" d="M232.66 83.04h5.1v-5.11h-5.1v5.11z"/><path class="cls-1" d="M220.2 64.35h5.11v-5.11h-5.11v5.11zm6.23 31.15h5.11v-5.11h-5.11v5.11zm0-24.92h5.11v-5.11h-5.11v5.11zm6.23 24.92h5.1v-5.11h-5.1v5.11zm0-6.23h5.1v-5.11h-5.1v5.11zm0 14.63a37.59 37.59 0 0 1 1.93 3.42l.28.63h2.89v-5.11h-5.11v1.06zm-24.92-20.86h5.11v-5.11h-5.11v5.11zm24.92 18.68h5.1v-5.1h-5.1v5.1zm-13.58-11.33h-3q1.54.57 3 1.27v-1.27zm-11.34-26.04h5.11v-5.11h-5.11v5.11zm6.23 24.92h5.11v-5.11h-5.11v5.11zm-6.23-18.69h5.11v-5.11h-5.11v5.11z"/><path class="cls-2" d="M207.74 76.81h5.11V71.7h-5.11v5.11z"/><path class="cls-1" d="M213.97 83.04h5.11v-5.11h-5.11v5.11zm6.23 6.23h5.11v-5.11h-5.11v5.11zm0 2.95a32.2 32.2 0 0 1 5 3.27h.11v-5.1h-5.11v1.83zm-6.23-15.41h5.11V71.7h-5.11v5.11zm0-12.46h5.11v-5.11h-5.11v5.11zm0 6.23h5.11v-5.11h-5.11v5.11z"/><path class="cls-2" d="M138.1 165.14h-5.11v5.1h5.11v-5.1z"/><path class="cls-1" d="M138.1 177.59h-5.11v5.11h5.11v-5.11zm0-6.22h-5.11v5.1h5.11v-5.1z"/><path class="cls-2" d="M138.1 152.68h-5.11v5.1h5.11v-5.1z"/><path class="cls-1" d="M139.23 188.93h5.1v-5.11h-5.1v5.11z"/><path class="cls-2" d="M139.23 182.7h5.1v-5.11h-5.1v5.11zm5.1-93.43v-5.11h-4.14c-.33.39-.65.79-1 1.19v3.92zm-6.23-2.54c-.64.83-1.25 1.68-1.85 2.53h1.85v-2.53zm6.23-7.1a78.454 78.454 0 0 0-3.17 3.41h3.17v-3.41z"/><path class="cls-3" d="M131.87 158.91h-5.1v5.1h5.1v-5.1z"/><path class="cls-2" d="M138.1 102.85h-5.11v5.1h5.11v-5.1zm0 24.91h-5.11v5.11h5.11v-5.11zm0 12.46h-5.11v5.11h5.11v-5.11zm0-24.92h-5.11v5.11h5.11v-5.11zm-6.23 49.84h-5.1v5.1h5.1v-5.1z"/><path class="cls-1" d="M139.23 176.47h5.1v-5.1h-5.1v5.1zm11.33-79.85h-5.11v5.1h5.11v-5.1z"/><path class="cls-3" d="M150.56 109.08h-5.11v5.1h5.11v-5.1z"/><path class="cls-1" d="M150.56 102.85h-5.11v5.1h5.11v-5.1zm-8.36 99.66c.69.76 1.41 1.51 2.13 2.25v-2.25zm8.36-87.21h-5.11v5.11h5.11v-5.11zm0 12.46h-5.11v5.11h5.11v-5.11z"/><path class="cls-2" d="M150.56 90.39h-5.11v5.11h5.11v-5.11z"/><path class="cls-1" d="M139.23 157.78h5.1v-5.1h-5.1v5.1zm0 6.23h5.1v-5.1h-5.1v5.1zm0-31.14h5.1v-5.11h-5.1v5.11zm0-24.92h5.1v-5.1h-5.1v5.1zm0 18.69h5.1v-5.11h-5.1v5.11zm37.37 94.56v3c1.67.51 3.38 1 5.11 1.36v-4.36zm11.33 0h-5.11v4.61c1.35.3 3.23.44 5.06.65l.05-.07v-5.2zm-30.02-6.2v.75c1.65 1 3.36 2 5.11 2.91V215zm-1.14 0zm12.47 5.08V215h-5.1v4.25c.58.29 1.18.57 1.77.85zm-.88 1.12l.89.36v-.36zm2.01 0v.8c1.67.66 3.37 1.28 5.11 1.84v-2.64z"/><path class="cls-3" d="M150.56 146.45h-5.11v5.11h5.11v-5.11z"/><path class="cls-1" d="M156.79 213.84v-5.1h-5.11v2.59q1.67 1.3 3.42 2.51z"/><path class="cls-2" d="M131.87 109.08h-5.1v5.1h5.1v-5.1zm0 24.91h-5.1v5.11h5.1v-5.11z"/><path class="cls-1" d="M137.12 196.28c.32.44.65.87 1 1.31v-1.31zm-5.25-13.58v-5.11h-5c.68 1.73 1.4 3.44 2.18 5.11zm16.67 26.04c.66.58 1.34 1.14 2 1.69v-1.69zm-10.44-13.58v-5.11H133c1 1.75 2.17 3.44 3.34 5.09zm6.23 6.23v-5.11h-5.1V199q1 1.21 2 2.37zm6.23 6.23v-5.11h-5.11v3.39c.6.59 1.22 1.15 1.84 1.71z"/><path class="cls-3" d="M156.79 121.53h-5.11v5.11h5.11v-5.11z"/><path class="cls-1" d="M156.79 127.76h-5.11v5.11h5.11v-5.11zm0-24.91h-5.11v5.1h5.11v-5.1zm0 31.14h-5.11v5.11h5.11v-5.11zm0 24.92h-5.11v5.1h5.11v-5.1zm0-62.29h-5.11v5.1h5.11v-5.1zm0 68.52h-5.11v5.1h5.11v-5.1zm0-12.46h-5.11v5.1h5.11v-5.1zm0-6.23h-5.11v5.11h5.11v-5.11zm0-6.23h-5.11v5.11h5.11v-5.11zm-6.23 31.15h-5.11v5.1h5.11v-5.1zm0 12.45h-5.11v5.11h5.11v-5.11zm-5.11 17.57h5.11v-5.11h-5.11v5.11z"/><path class="cls-3" d="M150.56 158.91h-5.11v5.1h5.11v-5.1z"/><path class="cls-1" d="M150.56 165.14h-5.11v5.1h5.11v-5.1zm0 12.45h-5.11v5.11h5.11v-5.11z"/><path class="cls-3" d="M156.79 171.37h-5.11v5.1h5.11v-5.1zm-6.23 18.68h-5.11v5.11h5.11v-5.11z"/><path class="cls-2" d="M150.56 74q-1.69 1.38-3.3 2.85h3.3V74z"/><path class="cls-1" d="M222.37 58.12c-.72-.17-1.44-.32-2.17-.47v.47zm15.39 6.23v-.91a77.47 77.47 0 0 0-5.11-2.16v3.07zm-11.33 0h5.1v-3.51c-1.61-.59-3.25-1.11-4.92-1.6h-.19v5.11zm-7.35-6.23v-.7c-1.68-.32-3.38-.6-5.11-.81v1.51zm-18.69 0V56c-1.72.05-3.43.15-5.11.29v1.81zm12.46 0v-1.63c-1.69-.19-3.39-.34-5.11-.42v2.05zm44.72 19.81V83h5.11v-.4q-2-2.43-4.24-4.67zm-6.22-1.12h5.1V76q-2.44-2.26-5.1-4.31v5.1zM239.6 64.35l-.71-.36v.36zm10.26 6.23a76.504 76.504 0 0 0-4.74-3.16v3.16zm-93.07 107.01h-5.11v5.11h5.11v-5.11zm82.1-112.12v5.11H244v-3.85c-.74-.43-1.48-.84-2.24-1.25z"/><path class="cls-2" d="M156.79 69.38c-.6.4-1.21.79-1.8 1.21h1.8v-1.21z"/><path class="cls-1" d="M156.79 196.28h-5.11v5.11h5.11v-5.11z"/><path class="cls-2" d="M156.79 76.81V71.7h-3.33c-.6.44-1.2.88-1.78 1.34v3.77z"/><path class="cls-1" d="M151.68 207.62h5.11v-5.11h-5.11v5.11zm5.11-23.8h-5.11v5.11h5.11v-5.11zm0 6.23h-5.11v5.11h5.11v-5.11z"/><path class="cls-2" d="M181.7 64.35v-5.11h-2.65c-.82.23-1.65.47-2.45.72v4.39zM163 70.58v-4.92q-2.62 1.4-5.11 3v1.94zm6.24-7.91q-1.88.8-3.69 1.68h3.69v-1.68zm6.24 1.68v-4c-1.74.57-3.44 1.2-5.11 1.88v2.14z"/><path class="cls-4" d="M168.29 49.69h-1.87q-1.65 0-3.24.06v4.9h5.11v-4.96z"/><path class="cls-5" d="M69 83.92h5.11v-5.09H69v5.09z"/><path class="cls-6" d="M98.74 98.33h5.11v-5.09h-5.11v5.09zm.95-12.67h5.11v-5.09h-5.11v5.09zM77.3 119.69h5.11v-5.09H77.3v5.09zm21.25-5.74h5.11v-5.09h-5.11v5.09z"/><path class="cls-1" d="M118.68 99.81h5.11v-5.09h-5.11v5.09z"/><path class="cls-5" d="M89.88 82.31h5.11v-5.1h-5.11v5.1z"/><path class="cls-6" d="M98.55 136.33h5.1v-5.1h-5.1v5.1z"/><path class="cls-5" d="M94.42 62.42h5.1v-5.09h-5.1v5.09z"/><path class="cls-6" d="M99.14 41.94h5.1v-5.1h-5.1v5.1zm22.94-11.85h5.1V25h-5.1v5.09zm-5.87 42.06h5.11v-5.09h-5.11v5.09z"/><path class="cls-2" d="M168.29 49.69h-1.87q-1.65 0-3.24.06v4.9h5.11v-4.96zm-11.22 10.1h-1.87q-1.65 0-3.24.06v4.9h5.11v-4.96zm-43.41 68.93h5.1v-5.09h-5.1v5.09z"/><path class="cls-7" d="M69 83.92h5.11v-5.09H69v5.09z"/><path class="cls-3" d="M98.74 98.33h5.11v-5.09h-5.11v5.09zM77.3 119.69h5.11v-5.09H77.3v5.09zm21.25-5.74h5.11v-5.09h-5.11v5.09z"/><path class="cls-1" d="M118.68 99.81h5.11v-5.09h-5.11v5.09z"/><path class="cls-7" d="M82.02 93.9h5.11v-5.09h-5.11v5.09z"/><path class="cls-3" d="M98.55 136.33h5.1v-5.1h-5.1v5.1z"/><path class="cls-7" d="M94.42 62.42h5.1v-5.09h-5.1v5.09z"/><path class="cls-3" d="M99.14 41.94h5.1v-5.1h-5.1v5.1zm22.94-11.85h5.1V25h-5.1v5.09zm-5.87 42.06h5.11v-5.09h-5.11v5.09zm11.53-7.88h5.11v-5.09h-5.11v5.09zm2.25 18.34h5.1v-5.1h-5.1v5.1z"/><path class="cls-1" d="M236.42 168.73c-5 16.8-17.13 26.25-34.13 26.25a41.31 41.31 0 0 1-7.11-.61v7.09h12.35v12.46H214v12.77c34.44-4.17 61.58-26.67 64.28-67.5H238c-.41 3.09-.92 6.27-1.57 9.55zm14.89-84.58V96.5h-6.17v6.36h-7V90.14h-22.58a33.1 33.1 0 0 1 18.8 17 40.29 40.29 0 0 1 1.7 4.29 59.55 59.55 0 0 1 1.92 9h39.59a65.65 65.65 0 0 0-13.75-36.35z"/><path class="cls-2" d="M72.03 315.02h9.08v1.37h-3.59v9.93h-1.89v-9.93h-3.6v-1.37zm10.88-.02h1.89v5a1.63 1.63 0 0 0 .58-.09 1.2 1.2 0 0 0 .51-.34 6.45 6.45 0 0 0 .62-.75c.24-.32 1-1.58 2.38-3.77h2l-2.25 3.38a12.1 12.1 0 0 1-1.35 1.73l3.68 6.19h-2.1L86 321.12a2 2 0 0 1-.54.15 3.38 3.38 0 0 1-.62.06v5h-1.93V315zm12.74 11.54a3.33 3.33 0 0 1-2.55-.9 3.44 3.44 0 0 1-.86-2.48 3.32 3.32 0 0 1 1.16-2.7 6.16 6.16 0 0 1 3.73-1h2.53v-.62a2.74 2.74 0 0 0-.58-2 2.45 2.45 0 0 0-1.84-.6 3 3 0 0 0-1.84.43 1.81 1.81 0 0 0-.7 1.33l-2-.19c.32-2 1.84-3 4.54-3a4.72 4.72 0 0 1 3.21 1 3.71 3.71 0 0 1 1.07 2.85v4.86a3.12 3.12 0 0 0 .21 1.26.87.87 0 0 0 .84.43 2.26 2.26 0 0 0 .62-.09v1.18a6.6 6.6 0 0 1-1.46.17 1.94 1.94 0 0 1-1.52-.56 3 3 0 0 1-.54-1.71h-.06A4.56 4.56 0 0 1 98 326a4.88 4.88 0 0 1-2.33.54zm.43-1.41a3.73 3.73 0 0 0 1.84-.47 3.58 3.58 0 0 0 1.28-1.31 3.37 3.37 0 0 0 .45-1.67v-.94h-2.06a6.54 6.54 0 0 0-2 .28 2.18 2.18 0 0 0-1 .77 2.41 2.41 0 0 0-.36 1.37 1.75 1.75 0 0 0 1.91 1.93zm10.51-10.11v4.77h5.1v-4.77h1.88v11.3h-1.88v-5.16h-5.1v5.16h-1.89v-11.3h1.89zm11.76-.02v6.19l-.11 2.89 5.23-9.08h2.06v11.31h-1.8v-8.06c0-.52 0-.86.06-1.07l-5.29 9.12h-2V315zm23.34 1.39h-3.19c-.26 1.88-.54 3.53-.86 4.95a22 22 0 0 1-1.14 3.62h5.18v-8.57zm3.4 14.2h-1.69v-4.26h-8.52v4.26h-1.69V325h1.24a13.44 13.44 0 0 0 1.35-3.7 59.18 59.18 0 0 0 1.07-6.23h6.72V325h1.52v5.63zm9.51-4.27v-9.94h-3.92c-.41 3-.73 5.08-1 6.15a10.62 10.62 0 0 1-.71 2.4 2.85 2.85 0 0 1-1 1.22 2.61 2.61 0 0 1-1.48.39 3.77 3.77 0 0 1-1-.13V325a2.28 2.28 0 0 0 .73.11 1 1 0 0 0 .92-.58 6.7 6.7 0 0 0 .64-2q.29-1.41.64-4.18L149 315h7.5v11.31zm8.97-4.79l-3.28 4.8h-2.14l3.6-4.93a3 3 0 0 1-2.59-3.26 2.65 2.65 0 0 1 1.13-2.36 5.78 5.78 0 0 1 3.28-.77h4.52v11.31h-1.88v-4.8zm2.63-5.18h-2.44a3.33 3.33 0 0 0-2 .47 1.76 1.76 0 0 0-.62 1.46 1.91 1.91 0 0 0 .56 1.48 2.87 2.87 0 0 0 1.86.47h2.63v-3.88zm12.51-1.35v4.2a1.51 1.51 0 0 0 1.73 1.69 11.29 11.29 0 0 0 2.87-.49V315h1.88v11.31h-1.88v-4.82l-.81.3a7.64 7.64 0 0 1-2.85.6 2.68 2.68 0 0 1-2.08-.81 3.18 3.18 0 0 1-.75-2.29V315zm11.29 0v6.19l-.11 2.89 5.23-9.08h2.06v11.31h-1.8v-8.06c0-.52 0-.86.06-1.07l-5.29 9.12h-2V315zm11.54 5.61a6.07 6.07 0 0 0 .73 3.36 2.4 2.4 0 0 0 2.14 1.07 2.56 2.56 0 0 0 1.67-.54 2.5 2.5 0 0 0 .84-1.67l1.91.13a4 4 0 0 1-1.39 2.59 5.06 5.06 0 0 1-6.6-.51 6.71 6.71 0 0 1-1.24-4.39 6.62 6.62 0 0 1 1.24-4.35 4.4 4.4 0 0 1 3.6-1.5 4.57 4.57 0 0 1 2.89.9 4 4 0 0 1 1.43 2.48l-1.95.13a2.43 2.43 0 0 0-.73-1.48 2.34 2.34 0 0 0-1.69-.56 2.38 2.38 0 0 0-2.16 1 6.18 6.18 0 0 0-.69 3.34zm8.21-5.59h9.07v1.37h-3.59v9.93h-1.89v-9.93h-3.59v-1.37zm15.2 4.77a5.63 5.63 0 0 1 3.23.77 2.78 2.78 0 0 1 1.09 2.44 2.91 2.91 0 0 1-1.11 2.46 5.21 5.21 0 0 1-3.21.86h-4.28V315h1.88v4.78zm-2.4 5.2h2.12a3.32 3.32 0 0 0 2-.49 1.79 1.79 0 0 0 .62-1.5 1.65 1.65 0 0 0-.6-1.43 3.28 3.28 0 0 0-2-.47h-2.12v3.9zm8.67 1.33V315h1.86v11.31zm11.74 0l-3.04-4.64-3.06 4.64h-2.04l4.03-5.82-3.84-5.48h2.08l2.83 4.39 2.8-4.39h2.1l-3.83 5.46 4.07 5.84h-2.1zm17.04-9.93h-3.19c-.26 1.88-.54 3.53-.86 4.95a22 22 0 0 1-1.13 3.62H260v-8.57zm3.4 14.2h-1.69v-4.26h-8.52v4.26h-1.69V325h1.24a13.43 13.43 0 0 0 1.35-3.7 59.05 59.05 0 0 0 1.07-6.23h6.72V325h1.52v5.63zm3.65-15.59v6.19l-.11 2.89 5.23-9.08h2.06v11.31h-1.8v-8.06c0-.52 0-.86.06-1.07l-5.29 9.12h-2V315zm14.56 0a5.47 5.47 0 0 1 3.15.73 2.38 2.38 0 0 1 1 2.1 2.32 2.32 0 0 1-.6 1.63 3.17 3.17 0 0 1-1.73.86v.09a3.19 3.19 0 0 1 2 .86 2.44 2.44 0 0 1 .69 1.8 2.85 2.85 0 0 1-1.16 2.4 5.19 5.19 0 0 1-3.15.86h-4.61V315zm-2.53 9.92h2.48a3.4 3.4 0 0 0 2-.45 1.63 1.63 0 0 0 .6-1.41 1.74 1.74 0 0 0-.62-1.5 4 4 0 0 0-2.12-.43h-2.36v3.79zm0-8.5v3.36h2.27a3.58 3.58 0 0 0 1.91-.39 1.44 1.44 0 0 0 .58-1.31 1.5 1.5 0 0 0-.54-1.26 3.18 3.18 0 0 0-1.8-.41zm12.04 10.12a3.33 3.33 0 0 1-2.55-.9 3.44 3.44 0 0 1-.86-2.48 3.32 3.32 0 0 1 1.16-2.7 6.17 6.17 0 0 1 3.73-1h2.53v-.62a2.74 2.74 0 0 0-.58-2 2.44 2.44 0 0 0-1.84-.6 3 3 0 0 0-1.84.43 1.81 1.81 0 0 0-.69 1.37l-2-.19c.32-2 1.84-3 4.54-3a4.72 4.72 0 0 1 3.21 1 3.71 3.71 0 0 1 1.07 2.85v4.86a3.12 3.12 0 0 0 .21 1.26.87.87 0 0 0 .84.43 2.27 2.27 0 0 0 .62-.09v1.18a6.6 6.6 0 0 1-1.46.17 1.94 1.94 0 0 1-1.52-.56 3 3 0 0 1-.53-1.71h-.06a4.56 4.56 0 0 1-1.67 1.84 4.88 4.88 0 0 1-2.33.54zm.43-1.41a3.73 3.73 0 0 0 1.84-.47 3.58 3.58 0 0 0 1.29-1.31 3.37 3.37 0 0 0 .45-1.67v-.94h-2.06a6.54 6.54 0 0 0-2 .28 2.18 2.18 0 0 0-1 .77 2.41 2.41 0 0 0-.36 1.37 1.75 1.75 0 0 0 1.91 1.93zm10.51-10.11v4.77h5.1v-4.77h1.88v11.3h-1.88v-5.16h-5.1v5.16h-1.88v-11.3h1.88zm19.47 5.63a6.41 6.41 0 0 1-1.31 4.43 4.84 4.84 0 0 1-3.79 1.46 4.64 4.64 0 0 1-3.75-1.52 6.68 6.68 0 0 1-1.26-4.37q0-5.85 5.08-5.85a4.76 4.76 0 0 1 3.81 1.41 6.76 6.76 0 0 1 1.22 4.43zm-2 0a6.31 6.31 0 0 0-.71-3.4 2.56 2.56 0 0 0-2.33-1 2.7 2.7 0 0 0-2.38 1.07 6.14 6.14 0 0 0-.75 3.38 6.37 6.37 0 0 0 .73 3.36 2.54 2.54 0 0 0 2.29 1.13 2.69 2.69 0 0 0 2.42-1.09 6.19 6.19 0 0 0 .73-3.4zm8.79-5.65a5.47 5.47 0 0 1 3.15.73 2.38 2.38 0 0 1 1 2.1 2.32 2.32 0 0 1-.6 1.63 3.17 3.17 0 0 1-1.73.86v.09a3.19 3.19 0 0 1 2 .86 2.44 2.44 0 0 1 .69 1.8 2.85 2.85 0 0 1-1.16 2.4 5.19 5.19 0 0 1-3.15.86h-4.62V315zm-2.53 9.92h2.48a3.4 3.4 0 0 0 2-.45 1.63 1.63 0 0 0 .6-1.41 1.73 1.73 0 0 0-.62-1.5 4 4 0 0 0-2.12-.43h-2.36v3.79zm0-8.5v3.36h2.27a3.58 3.58 0 0 0 1.91-.39 1.44 1.44 0 0 0 .58-1.31 1.5 1.5 0 0 0-.54-1.26 3.18 3.18 0 0 0-1.8-.41z"/></svg>