<svg xmlns="http://www.w3.org/2000/svg" viewBox="0 0 180 46"><title>souzmlogo</title><path d="M154.882 21.32a2.054 2.054 0 1 1-2.053 2.054 2.056 2.056 0 0 1 2.053-2.054z" fill="#00bfd6" fill-rule="evenodd"/><path d="M91.098 18.477l-1.266.969a6.908 6.908 0 0 0-2.516-2.062 7.366 7.366 0 0 0-3.223-.702 7.134 7.134 0 0 0-3.557.922 6.592 6.592 0 0 0-2.533 2.47 6.808 6.808 0 0 0-.903 3.487 6.538 6.538 0 0 0 2.013 4.889 6.976 6.976 0 0 0 5.079 1.96 7.15 7.15 0 0 0 5.64-2.63l1.266.96a8.094 8.094 0 0 1-2.999 2.353 9.42 9.42 0 0 1-4.006.833 8.248 8.248 0 0 1-8.692-8.494 7.911 7.911 0 0 1 2.47-5.91 8.547 8.547 0 0 1 6.198-2.4 9.167 9.167 0 0 1 4.059.88 7.923 7.923 0 0 1 2.97 2.474zm11.542-3.355a8.361 8.361 0 0 1 6.11 2.426 8.056 8.056 0 0 1 2.46 5.968 8.366 8.366 0 0 1-8.44 8.41 8.246 8.246 0 0 1-6.031-2.437 7.992 7.992 0 0 1-2.46-5.894 8.502 8.502 0 0 1 1.12-4.276 8.12 8.12 0 0 1 3.057-3.083 8.231 8.231 0 0 1 4.183-1.114zm.07 1.56a6.878 6.878 0 0 0-5.878 3.413 6.928 6.928 0 0 0-.894 3.496 6.745 6.745 0 0 0 6.773 6.775 6.907 6.907 0 0 0 3.464-.902 6.476 6.476 0 0 0 2.487-2.47 6.93 6.93 0 0 0 .89-3.481 6.768 6.768 0 0 0-.89-3.444 6.67 6.67 0 0 0-2.512-2.462 6.824 6.824 0 0 0-3.44-.925zm13.367 5.996h2.793a8.293 8.293 0 0 1 8.24-7.556 8.268 8.268 0 0 1 6.054 2.425 8.079 8.079 0 0 1 2.447 5.97 8.156 8.156 0 0 1-2.425 5.958 8.042 8.042 0 0 1-5.945 2.451 8.236 8.236 0 0 1-8.371-7.756h-2.793v7.708h-1.597V15.094h1.597v7.584zm17.894.838a6.464 6.464 0 0 0-2.04-4.898 6.661 6.661 0 0 0-4.724-1.936 6.498 6.498 0 0 0-4.681 1.961 6.626 6.626 0 0 0-2.015 4.95 6.458 6.458 0 0 0 1.995 4.845 6.734 6.734 0 0 0 11.465-4.922zm4.668-6.436a5.882 5.882 0 0 1 4.49-1.958 5.348 5.348 0 0 1 3.508 1.136 3.614 3.614 0 0 1 1.383 2.939 3.77 3.77 0 0 1-2.59 3.658q3.408.98 3.408 4.242a4.423 4.423 0 0 1-1.524 3.503 6.159 6.159 0 0 1-4.177 1.326 6.827 6.827 0 0 1-3.218-.713 7.353 7.353 0 0 1-2.576-2.497l1.331-.73a6.214 6.214 0 0 0 2.248 2.094 5.284 5.284 0 0 0 2.17.464 4.464 4.464 0 0 0 2.794-.88 3.167 3.167 0 0 0-.347-5.242 4.184 4.184 0 0 0-1.364-.522 14.635 14.635 0 0 0-2.122-.109h-.291v-1.404h.575q3.837 0 3.837-2.882a2.718 2.718 0 0 0-.876-2.124 3.183 3.183 0 0 0-2.214-.789 4.67 4.67 0 0 0-3.264 1.46l-1.181-.972zm21.751 14.832l2.385-16.846h.357l7.007 13.972 6.964-13.972h.259l2.479 16.846h-1.667l-1.728-11.454-6.1 11.454h-.45l-6.16-11.543-1.651 11.543h-1.695zM7.143 39.254h.194L9.09 44.38h-.697l-1.286-3.765-2 3.765h-.124l-2-3.78-1.285 3.78h-.696l1.77-5.126h.181l2.097 4.01 2.093-4.01zm7.319 3.427l.562.294a2.995 2.995 0 0 1-.641.861 2.557 2.557 0 0 1-.818.5 2.89 2.89 0 0 1-1.03.17 2.508 2.508 0 0 1-1.99-.82 2.736 2.736 0 0 1-.719-1.854 2.705 2.705 0 0 1 .609-1.735 2.502 2.502 0 0 1 2.064-.968 2.59 2.59 0 0 1 2.128.994 2.742 2.742 0 0 1 .574 1.747h-4.69a2.05 2.05 0 0 0 .58 1.458 1.868 1.868 0 0 0 1.384.57 2.302 2.302 0 0 0 .776-.135 2.053 2.053 0 0 0 .64-.359 3.057 3.057 0 0 0 .57-.723zm.006-1.38a2.175 2.175 0 0 0-.392-.844 1.844 1.844 0 0 0-.68-.508 2.124 2.124 0 0 0-.888-.193 1.93 1.93 0 0 0-1.32.484 2.177 2.177 0 0 0-.61 1.06zm6.937-4.141v.627a13.442 13.442 0 0 1-1.641.115 10.031 10.031 0 0 0-1.3.111 2.027 2.027 0 0 0-.794.318 1.806 1.806 0 0 0-.57.711 3.08 3.08 0 0 0-.289 1.063l-.07.726a2.28 2.28 0 0 1 .9-1.292 2.46 2.46 0 0 1 1.384-.41 2.591 2.591 0 0 1 1.934.799 2.633 2.633 0 0 1 .778 1.904 2.675 2.675 0 0 1-2.715 2.675 2.68 2.68 0 0 1-2.02-.877 3.919 3.919 0 0 1-.826-2.762 5.053 5.053 0 0 1 .303-1.99 2.47 2.47 0 0 1 .696-.972 2.953 2.953 0 0 1 1.014-.466 11.588 11.588 0 0 1 2.33-.214 7.513 7.513 0 0 0 .886-.066zm-.352 4.686a1.998 1.998 0 0 0-.603-1.46 1.966 1.966 0 0 0-2.85.003 2.07 2.07 0 0 0-.023 2.897 2.06 2.06 0 0 0 2.894-.002 1.976 1.976 0 0 0 .582-1.438zm6.295.835l.563.294a3.038 3.038 0 0 1-.64.861 2.584 2.584 0 0 1-.819.5 2.897 2.897 0 0 1-1.028.17 2.504 2.504 0 0 1-1.991-.82 2.734 2.734 0 0 1-.72-1.854 2.702 2.702 0 0 1 .61-1.735 2.5 2.5 0 0 1 2.063-.968 2.583 2.583 0 0 1 2.126.994 2.73 2.73 0 0 1 .576 1.747h-4.69a2.052 2.052 0 0 0 .58 1.458 1.87 1.87 0 0 0 1.386.57 2.296 2.296 0 0 0 .775-.135 2.069 2.069 0 0 0 .64-.359 2.981 2.981 0 0 0 .569-.723zm.005-1.38a2.148 2.148 0 0 0-.39-.844 1.849 1.849 0 0 0-.68-.508 2.114 2.114 0 0 0-.886-.193 1.928 1.928 0 0 0-1.321.484 2.174 2.174 0 0 0-.612 1.06zm6.365 3.08h-.699l-1.753-3.738-1.725 3.737h-.713l2.37-5.126h.118l2.402 5.126zm1.674-3.099h.637a4.673 4.673 0 0 1 1.188.117 1.392 1.392 0 0 1 .743.522 1.53 1.53 0 0 1-.14 2.01 1.835 1.835 0 0 1-1.359.45h-1.729v-5.127h.66v2.028zm.024.607v1.932h.771c.908 0 1.36-.314 1.36-.94a1.056 1.056 0 0 0-.146-.526.78.78 0 0 0-.426-.362 3.176 3.176 0 0 0-.988-.104zm7.615.02H40v2.471h-.664v-5.126h.665v2.038h3.029v-2.038h.665v5.126h-.665v-2.47zm2.811-.627h.638a4.672 4.672 0 0 1 1.187.117 1.396 1.396 0 0 1 .742.522 1.53 1.53 0 0 1-.139 2.01 1.842 1.842 0 0 1-1.36.45h-1.727v-5.127h.66v2.028zm.025.607v1.932h.77q1.361 0 1.36-.94a1.051 1.051 0 0 0-.148-.526.78.78 0 0 0-.424-.362 3.201 3.201 0 0 0-.99-.104zm3.781-2.635h.664v5.126h-.664v-5.126zm6.47 3.427l.564.294a3.024 3.024 0 0 1-.64.861 2.565 2.565 0 0 1-.82.5 2.893 2.893 0 0 1-1.028.17 2.516 2.516 0 0 1-1.994-.82 2.744 2.744 0 0 1-.716-1.854 2.706 2.706 0 0 1 .61-1.735 2.498 2.498 0 0 1 2.062-.968 2.59 2.59 0 0 1 2.129.994 2.748 2.748 0 0 1 .573 1.747h-4.69a2.055 2.055 0 0 0 .579 1.458 1.872 1.872 0 0 0 1.387.57 2.304 2.304 0 0 0 .775-.135 2.065 2.065 0 0 0 .64-.359 3.035 3.035 0 0 0 .57-.723zm.007-1.38a2.182 2.182 0 0 0-.391-.844 1.867 1.867 0 0 0-.68-.508 2.134 2.134 0 0 0-.888-.193 1.927 1.927 0 0 0-1.32.484 2.172 2.172 0 0 0-.611 1.06zm4.092-2.047h3.41v.57h-1.379v4.556h-.665v-4.556h-1.366v-.57zm4.316 0h.666v2.158l2.415-2.158h.917l-2.624 2.34 2.833 2.786h-.945l-2.386-2.37-.21.184v2.186h-.667v-5.126zm10.075 0v5.126h-.663v-.88a2.843 2.843 0 0 1-.942.756 2.61 2.61 0 0 1-1.14.25 2.557 2.557 0 0 1-1.88-.787 2.63 2.63 0 0 1-.779-1.916 2.681 2.681 0 0 1 2.679-2.674 2.488 2.488 0 0 1 1.154.265 2.605 2.605 0 0 1 .908.804v-.944zm-2.673.511a2.032 2.032 0 0 0-1.028.27 2.01 2.01 0 0 0-.751.757 2.068 2.068 0 0 0-.277 1.033 2.044 2.044 0 0 0 .28 1.031 2.03 2.03 0 0 0 1.77 1.042 2.096 2.096 0 0 0 1.036-.272 1.916 1.916 0 0 0 .755-.737 2.082 2.082 0 0 0 .262-1.045 2.014 2.014 0 0 0-.592-1.483 1.97 1.97 0 0 0-1.455-.596zm7.873 2.144h-3.03v2.471h-.662v-5.126h.663v2.038h3.028v-2.038h.665v5.126h-.665v-2.47zm2.815-2.655v3.797l3.818-3.797h.053v5.126h-.665v-3.768l-3.786 3.768h-.084v-5.126zm8.727 0v3.797l3.819-3.797h.052v5.126h-.664v-3.768l-3.789 3.768h-.082v-5.126zm8.063 0h.666v2.158l2.416-2.158h.914l-2.624 2.34 2.835 2.786h-.945l-2.388-2.37-.208.184v2.186h-.666v-5.126zm7.368-.125a2.59 2.59 0 0 1 1.988.855 2.714 2.714 0 0 1-.04 3.72 2.78 2.78 0 0 1-3.906 0 2.707 2.707 0 0 1-.041-3.715 2.598 2.598 0 0 1 1.999-.86zm-.006.646a1.938 1.938 0 0 0-1.429.606 2.008 2.008 0 0 0-.598 1.465 2.073 2.073 0 0 0 .271 1.034 1.934 1.934 0 0 0 .739.738 2.115 2.115 0 0 0 2.036 0 1.923 1.923 0 0 0 .737-.738 2.06 2.06 0 0 0 .272-1.034 2.001 2.001 0 0 0-.6-1.465 1.94 1.94 0 0 0-1.428-.606zm9.593-.52h.194l1.751 5.125h-.697l-1.285-3.765-2.001 3.765h-.123l-2-3.78-1.284 3.78h-.696l1.77-5.126h.18l2.096 4.01 2.095-4.01zm2.936 0h4.36v5.125h-.666v-4.508h-3.029v4.508h-.665v-5.126zm10.247 5.125h-.7l-1.752-3.737-1.724 3.737h-.715l2.37-5.126h.117l2.404 5.126zm5.396-1.699l.563.294a3.056 3.056 0 0 1-.641.861 2.576 2.576 0 0 1-.819.5 2.897 2.897 0 0 1-1.029.17 2.511 2.511 0 0 1-1.992-.82 2.739 2.739 0 0 1-.718-1.854 2.702 2.702 0 0 1 .61-1.735 2.496 2.496 0 0 1 2.064-.968 2.586 2.586 0 0 1 2.127.994 2.74 2.74 0 0 1 .573 1.747h-4.69a2.056 2.056 0 0 0 .58 1.458 1.87 1.87 0 0 0 1.386.57 2.299 2.299 0 0 0 .776-.135 2.032 2.032 0 0 0 .639-.359 3.016 3.016 0 0 0 .57-.723zm.005-1.38a2.174 2.174 0 0 0-.39-.844 1.86 1.86 0 0 0-.681-.508 2.131 2.131 0 0 0-.888-.193 1.927 1.927 0 0 0-1.32.484 2.173 2.173 0 0 0-.61 1.06zm1.964-2.047h.663v2.158l2.417-2.158h.917l-2.624 2.34 2.833 2.786h-.945l-2.386-2.37-.212.184v2.186h-.663v-5.126zm4.33 0h3.41v.57h-1.38v4.556h-.663v-4.556h-1.368v-.57zm3.76 0h.692l1.79 3.931 1.74-3.93h.712l-3.097 7h-.713l1.016-2.295-2.14-4.706zm6.469 5.126h-.664v-5.126h.664v2.153h.879a2.681 2.681 0 0 1 2.679-2.278 2.585 2.585 0 0 1 1.93.799 2.639 2.639 0 0 1 .777 1.904 2.672 2.672 0 0 1-2.702 2.675 2.664 2.664 0 0 1-1.801-.667 2.598 2.598 0 0 1-.883-1.786h-.88v2.326zm5.58-2.534a1.996 1.996 0 0 0-.602-1.46 1.958 1.958 0 0 0-2.841 0 2.08 2.08 0 0 0-.029 2.898 2.057 2.057 0 0 0 2.893 0 1.982 1.982 0 0 0 .58-1.438zm10.162 2.534h-8.247v-5.126h.665v4.51h2.882v-4.51h.664v4.51h2.866v-4.51h.681v4.51h1.125v1.428h-.636v-.812zm2.198-5.126v3.797l3.82-3.797h.05v5.126h-.663v-3.768l-3.787 3.768h-.083v-5.126zm9.74 3.427l.56.294a3.036 3.036 0 0 1-.639.861 2.569 2.569 0 0 1-.818.5 2.898 2.898 0 0 1-1.03.17 2.504 2.504 0 0 1-1.99-.82 2.739 2.739 0 0 1-.719-1.854 2.698 2.698 0 0 1 .61-1.735 2.498 2.498 0 0 1 2.062-.968 2.583 2.583 0 0 1 2.127.994 2.733 2.733 0 0 1 .576 1.747h-4.69a2.063 2.063 0 0 0 .58 1.458 1.869 1.869 0 0 0 1.385.57 2.282 2.282 0 0 0 .774-.135 2.026 2.026 0 0 0 .64-.359 2.992 2.992 0 0 0 .572-.723zm.006-1.38a2.181 2.181 0 0 0-.392-.844 1.826 1.826 0 0 0-.682-.508 2.105 2.105 0 0 0-.886-.193 1.929 1.929 0 0 0-1.32.484 2.182 2.182 0 0 0-.612 1.06z" fill="#435363"/><path d="M7.63 9.684a12.042 12.042 0 0 1 9.531-4.668 12.19 12.19 0 0 1 1.641.11l.571-4.163a16.594 16.594 0 0 0-2.212-.149 16.269 16.269 0 0 0-2.213 32.387 16.53 16.53 0 0 0 2.213.15 16.28 16.28 0 0 0 15.068-22.413l-3.892 1.586A12.067 12.067 0 0 1 17.16 29.146a12.268 12.268 0 0 1-1.642-.109A12.067 12.067 0 0 1 7.63 9.684z" fill="#00bfd6" fill-rule="evenodd"/><path d="M61.917 15.854q-.067-.596-.186-1.154l-.036-.154a10.561 10.561 0 0 0-3.34-5.658 8.692 8.692 0 0 0-11.52-.002 10.538 10.538 0 0 0-3.339 5.657l-.03.13c-.068.32-.125.644-.167.972q-.065.52-.085 1.036h.002v15.252h-3.861V16.68h.001a12.35 12.35 0 0 0-.083-1.036q-.064-.492-.168-.972l-.03-.13a10.527 10.527 0 0 0-3.34-5.657 8.688 8.688 0 0 0-11.518.002 10.563 10.563 0 0 0-3.341 5.658l-.13.566h-3.884l.165-.9a15.134 15.134 0 0 1 4.628-8.474 12.42 12.42 0 0 1 8.366-3.336 12.02 12.02 0 0 1 6.914 2.202 14.323 14.323 0 0 1 4.293 4.819 14.312 14.312 0 0 1 4.332-4.806 12.27 12.27 0 0 1 6.991-2.215 12.418 12.418 0 0 1 8.365 3.336 15.088 15.088 0 0 1 4.52 7.934h.012l.108.603c.012.058.023.116.033.175l.122.662h-.027c.023.191.045.386.062.584q.067.73.067 1.434v14.803h-3.827V17.129a11.966 11.966 0 0 0-.07-1.275z" fill="#00bfd6"/></svg>