<svg xmlns="http://www.w3.org/2000/svg" viewBox="0 0 270 54"><defs><mask id="a" x="0" y="0" width="54" height="54" maskUnits="userSpaceOnUse"><path d="M50.5 25.5a25 25 0 1 1-25-25 25 25 0 0 1 25 25z" fill="#fff" transform="translate(1.5 1.5)"/></mask><mask id="b" x="72" y="0" width="54" height="54" maskUnits="userSpaceOnUse"><path d="M122.5 25.5a25 25 0 1 1-25-25 25 25 0 0 1 25 25z" fill="#fff" transform="translate(1.5 1.5)"/></mask><mask id="c" x="144" y="0" width="54" height="54" maskUnits="userSpaceOnUse"><path d="M194.5 25.5a25 25 0 1 1-25-25 25 25 0 0 1 25 25z" fill="#fff" transform="translate(1.5 1.5)"/></mask><mask id="d" x="216" y="0" width="54" height="54" maskUnits="userSpaceOnUse"><path d="M266.5 25.5a25 25 0 1 1-25-25 25 25 0 0 1 25 25z" fill="#fff" transform="translate(1.5 1.5)"/></mask></defs><title>logo-contacts</title><path d="M52 27A25 25 0 1 1 27 2a25 25 0 0 1 25 25z" fill="#fff"/><g mask="url(#a)"><path d="M50 27a23 23 0 0 1-23 23v4a27 27 0 0 0 27-27zM27 50A23 23 0 0 1 4 27H0a27 27 0 0 0 27 27zM4 27A23 23 0 0 1 27 4V0A27 27 0 0 0 0 27zM27 4a23 23 0 0 1 23 23h4A27 27 0 0 0 27 0z" fill="#4abad9"/></g><path d="M124 27A25 25 0 1 1 99 2a25 25 0 0 1 25 25z" fill="#fff"/><g mask="url(#b)"><path d="M122 27a23 23 0 0 1-23 23v4a27 27 0 0 0 27-27zM99 50a23 23 0 0 1-23-23h-4a27 27 0 0 0 27 27zM76 27A23 23 0 0 1 99 4V0a27 27 0 0 0-27 27zM99 4a23 23 0 0 1 23 23h4A27 27 0 0 0 99 0z" fill="#4abad9"/></g><path d="M196 27a25 25 0 1 1-25-25 25 25 0 0 1 25 25z" fill="#fff"/><g mask="url(#c)"><path d="M194 27a23 23 0 0 1-23 23v4a27 27 0 0 0 27-27zm-23 23a23 23 0 0 1-23-23h-4a27 27 0 0 0 27 27zm-23-23a23 23 0 0 1 23-23V0a27 27 0 0 0-27 27zm23-23a23 23 0 0 1 23 23h4a27 27 0 0 0-27-27z" fill="#4abad9"/></g><path d="M268 27a25 25 0 1 1-25-25 25 25 0 0 1 25 25z" fill="#fff"/><g mask="url(#d)"><path d="M266 27a23 23 0 0 1-23 23v4a27 27 0 0 0 27-27zm-23 23a23 23 0 0 1-23-23h-4a27 27 0 0 0 27 27zm-23-23a23 23 0 0 1 23-23V0a27 27 0 0 0-27 27zm23-23a23 23 0 0 1 23 23h4a27 27 0 0 0-27-27z" fill="#4abad9"/></g><path d="M52 28h22v-2H52zm72 0h22v-2h-22zm72 0h22v-2h-22z" fill="#4abad9"/><path d="M33.63 25.596l-5.28 11.231a1.852 1.852 0 0 1-1.67 1.03 1.815 1.815 0 0 1-1.654-1.03L19.73 25.596a6.083 6.083 0 0 1-.479-2.598 7.43 7.43 0 0 1 14.86 0 6.083 6.083 0 0 1-.48 2.598zm-6.95-6.313a3.715 3.715 0 1 0 3.715 3.715 3.722 3.722 0 0 0-3.715-3.715zm82.552 15.439a3.822 3.822 0 0 1-1.77 1.538 5.54 5.54 0 0 1-2.7.74 11.193 11.193 0 0 1-3.802-1.001 13.65 13.65 0 0 1-2.54-1.204 24.514 24.514 0 0 1-6.964-6.966 13.543 13.543 0 0 1-1.205-2.54 11.171 11.171 0 0 1-1.001-3.801 5.546 5.546 0 0 1 .74-2.7 3.825 3.825 0 0 1 1.538-1.77 6.468 6.468 0 0 1 2.017-.45.742.742 0 0 1 .305.044c.305.101.624.812.77 1.103.463.827.913 1.668 1.392 2.481.232.377.668.842.668 1.292 0 .885-2.627 2.176-2.627 2.96a3.118 3.118 0 0 0 .566 1.248 14.44 14.44 0 0 0 5.935 5.935 3.119 3.119 0 0 0 1.248.566c.784 0 2.075-2.627 2.96-2.627.45 0 .915.436 1.292.668.813.479 1.654.928 2.481 1.393.29.144 1.002.465 1.103.77a.742.742 0 0 1 .044.304 6.474 6.474 0 0 1-.45 2.017z" fill="none" stroke="#4abad9" stroke-miterlimit="10"/><path d="M184.004 35.535a2.329 2.329 0 0 1-2.322 2.322h-21.36A2.329 2.329 0 0 1 158 35.535V19.748a2.329 2.329 0 0 1 2.322-2.322h21.36a2.329 2.329 0 0 1 2.322 2.322zm-2.322-16.252h-21.36a.478.478 0 0 0-.465.465 5.233 5.233 0 0 0 2.133 4.12q2.918 2.286 5.82 4.6c.768.625 2.162 1.96 3.177 1.96h.03c1.015 0 2.409-1.335 3.177-1.96q2.896-2.306 5.82-4.6a5.654 5.654 0 0 0 2.132-3.583c0-.363.087-1.002-.464-1.002zm.464 5.108a7.777 7.777 0 0 1-1.002.958c-2.074 1.596-4.164 3.221-6.181 4.905-1.088.914-2.438 2.031-3.946 2.031h-.03c-1.509 0-2.858-1.117-3.946-2.031-2.018-1.684-4.107-3.309-6.182-4.905a7.777 7.777 0 0 1-1.002-.958v11.144a.478.478 0 0 0 .465.465h21.36a.478.478 0 0 0 .464-.465z" fill="#4abad9"/><path d="M254.852 24.869a16.694 16.694 0 0 0-22.985 0 .524.524 0 0 1-.32.13 8.304 8.304 0 0 1-2.438-2.437.477.477 0 0 1 .145-.334 20.408 20.408 0 0 1 28.21 0 .477.477 0 0 1 .145.334A8.304 8.304 0 0 1 255.172 25a.524.524 0 0 1-.32-.131zm-3.947 3.947c-2.394-1.858-4.41-2.96-7.546-2.96-4.382 0-7.72 3.076-7.879 3.076a8.257 8.257 0 0 1-2.423-2.438.47.47 0 0 1 .144-.32 14.806 14.806 0 0 1 20.317 0 .47.47 0 0 1 .144.32 8.257 8.257 0 0 1-2.424 2.438.661.661 0 0 1-.333-.116zm-7.546 2.612a7.92 7.92 0 0 0-3.918 1.45 8.2 8.2 0 0 1-2.453-2.437.47.47 0 0 1 .147-.334 9.288 9.288 0 0 1 12.449 0 .47.47 0 0 1 .146.334 8.2 8.2 0 0 1-2.453 2.438 7.92 7.92 0 0 0-3.918-1.451zm-2.408 2.96c0-.711 1.858-1.103 2.408-1.103s2.409.392 2.409 1.104a7.269 7.269 0 0 1-2.409 2.423 7.269 7.269 0 0 1-2.408-2.423z" fill="none" stroke="#4abad9" stroke-miterlimit="10"/></svg>