<svg id="Слой_1" data-name="Слой 1" xmlns="http://www.w3.org/2000/svg" viewBox="0 0 160 118"><defs><style>.cls-1{fill:#127fa2;}.cls-2,.cls-3{fill:#fff;}.cls-2{fill-rule:evenodd;}</style></defs><title>chistetika-blue</title><rect class="cls-1" width="160" height="118"/><path class="cls-2" d="M127.55,90.4l-.15.12a.84.84,0,0,0-.31-.25.89.89,0,0,0-.39-.09.87.87,0,0,0-.43.11.8.8,0,0,0-.31.3.83.83,0,0,0-.11.42.8.8,0,0,0,.24.59.85.85,0,0,0,.62.24.87.87,0,0,0,.69-.32l.15.12a1,1,0,0,1-.36.29,1.15,1.15,0,0,1-.49.1,1,1,0,0,1-1.06-1,1,1,0,0,1,.3-.72,1,1,0,0,1,.75-.29,1.11,1.11,0,0,1,.49.11,1,1,0,0,1,.36.3Z"/><path class="cls-2" d="M129,90.18h0a.84.84,0,0,0-.71.41.84.84,0,0,0-.11.42.82.82,0,0,0,.82.82.84.84,0,0,0,.42-.11.79.79,0,0,0,.3-.3.84.84,0,0,0,.11-.42.82.82,0,0,0-.11-.42.81.81,0,0,0-.31-.3.83.83,0,0,0-.42-.11Zm0-.19a1,1,0,0,1,.74.29,1,1,0,0,1,0,1.45,1,1,0,0,1-.73.3,1,1,0,0,1-.73-.3,1,1,0,0,1-.3-.72,1,1,0,0,1,.14-.52A1,1,0,0,1,129,90Z"/><path class="cls-2" d="M132.76,91h0a.78.78,0,0,0-.25-.59.81.81,0,0,0-.57-.24.79.79,0,0,0-.57.24.81.81,0,0,0-.24.6.78.78,0,0,0,.24.59.82.82,0,0,0,1.15,0,.8.8,0,0,0,.24-.6Zm-2.17-.1h.34a1,1,0,0,1,1-.92,1,1,0,0,1,.74.29,1,1,0,0,1,.3.73,1,1,0,0,1-.29.72,1,1,0,0,1-.72.3,1,1,0,0,1-1-.94h-.34V92h-.19V90h.19v.92Z"/><path class="cls-2" d="M133.33,90.23a.71.71,0,0,1,.55-.24.65.65,0,0,1,.43.14.44.44,0,0,1,.17.36.46.46,0,0,1-.31.44.5.5,0,0,1,.41.52.54.54,0,0,1-.18.43.75.75,0,0,1-.51.16.83.83,0,0,1-.39-.09.9.9,0,0,1-.31-.3l.16-.09a.75.75,0,0,0,.27.25.64.64,0,0,0,.26.06.54.54,0,0,0,.34-.11.42.42,0,0,0,.09-.51.37.37,0,0,0-.13-.13.52.52,0,0,0-.17-.06h-.29v-.17h.07q.47,0,.47-.35a.33.33,0,0,0-.11-.26.39.39,0,0,0-.27-.1.57.57,0,0,0-.4.18l-.14-.12Z"/><polygon class="cls-2" points="135.97 92.03 136.26 89.98 136.3 89.98 137.16 91.68 138 89.98 138.03 89.98 138.33 92.03 138.13 92.03 137.92 90.64 137.18 92.03 137.13 92.03 136.38 90.63 136.18 92.03 135.97 92.03 135.97 92.03"/><path class="cls-2" d="M135.3,90.74a.25.25,0,1,1-.25.25.25.25,0,0,1,.25-.25Z"/><path class="cls-2" d="M127,84.45a2.35,2.35,0,0,1,1.86-.91l.32,0,.11-.81-.43,0a3.18,3.18,0,0,0-.43,6.33l.43,0a3.18,3.18,0,0,0,2.95-4.38L131,85a2.36,2.36,0,0,1-2.19,3.25l-.32,0A2.36,2.36,0,0,1,127,84.45Z"/><path class="cls-2" d="M137.58,85.66h0a2.13,2.13,0,0,0,0-.23v0a2.07,2.07,0,0,0-.65-1.11,1.7,1.7,0,0,0-2.25,0A2.06,2.06,0,0,0,134,85.4v0c0,.06,0,.13,0,.19s0,.13,0,.2v3h-.75v-3c0-.07,0-.13,0-.2s0-.13,0-.19v0a2.06,2.06,0,0,0-.65-1.11,1.7,1.7,0,0,0-2.25,0,2.07,2.07,0,0,0-.65,1.11l0,.11h-.76l0-.18a3,3,0,0,1,.91-1.66,2.43,2.43,0,0,1,1.64-.65,2.35,2.35,0,0,1,1.35.43,2.8,2.8,0,0,1,.84.94,2.79,2.79,0,0,1,.85-.94,2.4,2.4,0,0,1,1.37-.43,2.43,2.43,0,0,1,1.64.65,3,3,0,0,1,.88,1.55h0l0,.12v0l0,.13h0v.11c0,.1,0,.19,0,.28V88.8h-.75V85.91a2.27,2.27,0,0,0,0-.25Z"/><path class="cls-2" d="M49.16,87.65h-2.6a2.87,2.87,0,0,0-3.11-2.22,3.1,3.1,0,0,0-1.47.36,4.05,4.05,0,0,0-1.82,2,7.36,7.36,0,0,0,.36,6.23,3.29,3.29,0,0,0,2.95,1.78,2.89,2.89,0,0,0,3-2.14h2.62a6.14,6.14,0,0,1-2,3.27,6,6,0,0,1-8.39-1.15,8.58,8.58,0,0,1-1.55-5.25,8.42,8.42,0,0,1,1.57-5.16,5.56,5.56,0,0,1,4.7-2.32,5.67,5.67,0,0,1,3.69,1.21,5.9,5.9,0,0,1,2,3.35Z"/><polygon class="cls-2" points="59.74 97.9 57.36 97.9 57.36 91.62 52.86 91.62 52.86 97.9 50.48 97.9 50.48 83.37 52.86 83.37 52.86 89.36 57.36 89.36 57.36 83.37 59.74 83.37 59.74 97.9 59.74 97.9"/><polygon class="cls-2" points="64.29 97.9 61.83 97.9 61.83 86.64 64.29 86.64 64.29 97.9 64.29 97.9"/><polygon class="cls-2" points="64.29 85.73 61.83 85.73 61.83 83.31 64.29 83.31 64.29 85.73 64.29 85.73"/><polygon class="cls-2" points="100.91 97.9 98.44 97.9 98.44 86.64 100.91 86.64 100.91 97.9 100.91 97.9"/><polygon class="cls-2" points="100.91 85.73 98.44 85.73 98.44 83.31 100.91 83.31 100.91 85.73 100.91 85.73"/><path class="cls-2" d="M73.72,93.72a4.9,4.9,0,0,1-1,3.19,3.73,3.73,0,0,1-3,1.27,3.65,3.65,0,0,1-3-1.27,4.8,4.8,0,0,1-1-3.17h2.42a2.89,2.89,0,0,0,.38,1.43,1.3,1.3,0,0,0,1.13.79,1.37,1.37,0,0,0,1.19-.77,2.65,2.65,0,0,0,.4-1.43,2.7,2.7,0,0,0-1.35-2.26l-2.54-1.55A3.62,3.62,0,0,1,66,87a3.94,3.94,0,0,1,1-2.86,3.72,3.72,0,0,1,2.81-1.06,3.46,3.46,0,0,1,2.7,1.07,4.06,4.06,0,0,1,.91,2.78H71.12a2.27,2.27,0,0,0-.4-1.14,1.09,1.09,0,0,0-.93-.53,1.17,1.17,0,0,0-1,.51A2,2,0,0,0,68.41,87a2.24,2.24,0,0,0,.4,1.24,3,3,0,0,0,1.11,1,13.65,13.65,0,0,1,2.62,1.71,3.7,3.7,0,0,1,1.17,2.8Z"/><polygon class="cls-2" points="81.43 85.63 79.03 85.63 79.03 97.9 76.6 97.9 76.6 85.63 74.18 85.63 74.18 83.37 81.43 83.37 81.43 85.63 81.43 85.63"/><polygon class="cls-2" points="88.89 97.9 82.33 97.9 82.33 83.37 88.89 83.37 88.89 85.63 84.77 85.63 84.77 89.42 88.89 89.42 88.89 91.64 84.77 91.64 84.77 95.6 88.89 95.6 88.89 97.9 88.89 97.9"/><polygon class="cls-2" points="96.99 85.63 94.59 85.63 94.59 97.9 92.17 97.9 92.17 85.63 89.75 85.63 89.75 83.37 96.99 83.37 96.99 85.63 96.99 85.63"/><polygon class="cls-2" points="111.63 97.9 108.92 97.9 104.97 90.57 104.97 97.9 102.59 97.9 102.59 83.37 104.97 83.37 104.97 90.35 108.98 83.37 111.51 83.37 107.21 90.35 111.63 97.9 111.63 97.9"/><path class="cls-2" d="M123.47,97.9H121L120,94.63h-4.49l-1,3.27H112l4.66-14.53h2.12l4.64,14.53Zm-4.1-5.31h0l-1.59-5.83-1.63,5.83Z"/><polygon class="cls-2" points="69.37 61.27 67.69 61.27 67.69 62.95 69.37 62.95 69.37 61.27 69.37 61.27"/><polygon class="cls-2" points="69.37 63.32 67.69 63.32 67.69 65.01 69.37 65.01 69.37 63.32 69.37 63.32"/><path class="cls-2" d="M65.63,40.34h1.58c0-.19.07-.38.11-.57V38.66H65.63v1.68Z"/><polygon class="cls-2" points="69.37 59.21 67.69 59.21 67.69 60.9 69.37 60.9 69.37 59.21 69.37 59.21"/><polygon class="cls-2" points="69.37 65.38 67.69 65.38 67.69 67.06 69.37 67.06 69.37 65.38 69.37 65.38"/><path class="cls-2" d="M69.37,56.44q-.36-.64-.68-1.34h-1v1.68h1.68v-.34Z"/><polygon class="cls-2" points="69.37 67.44 67.69 67.44 67.69 69.12 69.37 69.12 69.37 67.44 69.37 67.44"/><path class="cls-2" d="M65.63,42.4h1.3c.06-.58.13-1.14.22-1.69H65.63V42.4Z"/><path class="cls-2" d="M65.63,46.51h1.19c0-.41,0-.81,0-1.23,0-.15,0-.3,0-.45H65.63v1.69Z"/><path class="cls-2" d="M65.63,44.45h1.17c0-.57,0-1.13.09-1.68H65.63v1.68Z"/><path class="cls-2" d="M65.63,48.56H67q-.09-.82-.14-1.69H65.63v1.69Z"/><path class="cls-2" d="M67.79,52.68l-.1-.36v.36Z"/><polygon class="cls-2" points="69.37 57.16 67.69 57.16 67.69 58.84 69.37 58.84 69.37 57.16 69.37 57.16"/><path class="cls-2" d="M71.43,59.23l0,0H69.74V60.9h1.69V59.23Z"/><polygon class="cls-2" points="73.48 65.38 71.8 65.38 71.8 67.06 73.48 67.06 73.48 65.38 73.48 65.38"/><polygon class="cls-2" points="73.48 69.49 71.8 69.49 71.8 71.18 73.48 71.18 73.48 69.49 73.48 69.49"/><polygon class="cls-2" points="73.48 67.44 71.8 67.44 71.8 69.12 73.48 69.12 73.48 67.44 73.48 67.44"/><polygon class="cls-2" points="73.48 63.32 71.8 63.32 71.8 65.01 73.48 65.01 73.48 63.32 73.48 63.32"/><polygon class="cls-2" points="73.48 61.27 71.8 61.27 71.8 62.95 73.48 62.95 73.48 61.27 73.48 61.27"/><polygon class="cls-2" points="71.43 63.32 69.74 63.32 69.74 65.01 71.43 65.01 71.43 63.32 71.43 63.32"/><polygon class="cls-2" points="71.43 61.27 69.74 61.27 69.74 62.95 71.43 62.95 71.43 61.27 71.43 61.27"/><polygon class="cls-2" points="71.43 67.44 69.74 67.44 69.74 69.12 71.43 69.12 71.43 67.44 71.43 67.44"/><polygon class="cls-2" points="71.43 69.49 69.74 69.49 69.74 71.18 71.43 71.18 71.43 69.49 71.43 69.49"/><polygon class="cls-2" points="71.43 65.38 69.74 65.38 69.74 67.06 71.43 67.06 71.43 65.38 71.43 65.38"/><path class="cls-2" d="M69.74,58.84h1.33a13.88,13.88,0,0,1-1.27-1.69h-.06v1.69Z"/><path class="cls-2" d="M67.69,34.18h1.65l0-.06V32.49H67.69v1.69Z"/><polygon class="cls-2" points="67.69 21.84 69.37 21.84 69.37 20.16 67.69 20.16 67.69 21.84 67.69 21.84"/><path class="cls-2" d="M69.74,33.49q.33-.52.69-1h-.69v1Z"/><polygon class="cls-2" points="67.69 28.01 69.37 28.01 69.37 26.32 67.69 26.32 67.69 28.01 67.69 28.01"/><polygon class="cls-2" points="67.69 30.07 69.37 30.07 69.37 28.38 67.69 28.38 67.69 30.07 67.69 30.07"/><path class="cls-2" d="M69.74,32.12h1c.23-.28.46-.54.7-.8v-.89H69.74v1.68Z"/><polygon class="cls-2" points="69.74 21.84 71.43 21.84 71.43 20.16 69.74 20.16 69.74 21.84 69.74 21.84"/><polygon class="cls-2" points="69.74 28.01 71.43 28.01 71.43 26.32 69.74 26.32 69.74 28.01 69.74 28.01"/><polygon class="cls-2" points="69.74 25.95 71.43 25.95 71.43 24.27 69.74 24.27 69.74 25.95 69.74 25.95"/><polygon class="cls-2" points="65.63 38.29 67.32 38.29 67.32 36.6 65.63 36.6 65.63 38.29 65.63 38.29"/><polygon class="cls-2" points="69.74 30.07 71.43 30.07 71.43 28.38 69.74 28.38 69.74 30.07 69.74 30.07"/><polygon class="cls-2" points="65.63 30.07 67.32 30.07 67.32 28.38 65.63 28.38 65.63 30.07 65.63 30.07"/><polygon class="cls-2" points="65.63 32.12 67.32 32.12 67.32 30.43 65.63 30.43 65.63 32.12 65.63 32.12"/><polygon class="cls-2" points="67.69 32.12 69.37 32.12 69.37 30.43 67.69 30.43 67.69 32.12 67.69 32.12"/><polygon class="cls-2" points="65.63 36.23 67.32 36.23 67.32 34.55 65.63 34.55 65.63 36.23 65.63 36.23"/><path class="cls-2" d="M71.8,60.9h1.61a12.08,12.08,0,0,1-1.61-1.3v1.3Z"/><path class="cls-2" d="M67.69,54.73h.84q-.34-.81-.62-1.69h-.22v1.69Z"/><polygon class="cls-2" points="65.63 23.9 67.32 23.9 67.32 22.21 65.63 22.21 65.63 23.9 65.63 23.9"/><path class="cls-2" d="M67.69,36.23h.67a17.21,17.21,0,0,1,.78-1.68H67.69v1.68Z"/><path class="cls-2" d="M67.69,38.23q.24-.85.53-1.63h-.53v1.63Z"/><path class="cls-2" d="M83.76,62.5a12.17,12.17,0,0,1-1.69.33V63h1.69V62.5Z"/><polygon class="cls-2" points="83.76 65.38 82.08 65.38 82.08 67.06 83.76 67.06 83.76 65.38 83.76 65.38"/><path class="cls-2" d="M71.8,31c.19-.18.38-.35.58-.52H71.8V31Z"/><polygon class="cls-2" points="83.76 63.32 82.08 63.32 82.08 65.01 83.76 65.01 83.76 63.32 83.76 63.32"/><polygon class="cls-2" points="81.7 65.38 80.02 65.38 80.02 67.06 81.7 67.06 81.7 65.38 81.7 65.38"/><polygon class="cls-2" points="77.59 65.38 75.91 65.38 75.91 67.06 77.59 67.06 77.59 65.38 77.59 65.38"/><polygon class="cls-2" points="77.59 67.44 75.91 67.44 75.91 69.12 77.59 69.12 77.59 67.44 77.59 67.44"/><polygon class="cls-2" points="77.59 63.32 75.91 63.32 75.91 65.01 77.59 65.01 77.59 63.32 77.59 63.32"/><polygon class="cls-2" points="79.65 71.55 77.97 71.55 77.97 73.33 79.65 73.33 79.65 71.55 79.65 71.55"/><polygon class="cls-2" points="79.65 69.49 77.97 69.49 77.97 71.18 79.65 71.18 79.65 69.49 79.65 69.49"/><path class="cls-2" d="M77.59,62.66a12.1,12.1,0,0,1-1.69-.48V63h1.69v-.3Z"/><polygon class="cls-2" points="77.59 69.49 75.91 69.49 75.91 71.18 77.59 71.18 77.59 69.49 77.59 69.49"/><polygon class="cls-2" points="75.54 67.44 73.85 67.44 73.85 69.12 75.54 69.12 75.54 67.44 75.54 67.44"/><polygon class="cls-2" points="77.59 71.55 75.91 71.55 75.91 73.33 77.59 73.33 77.59 71.55 77.59 71.55"/><polygon class="cls-2" points="75.54 65.38 73.85 65.38 73.85 67.06 75.54 67.06 75.54 65.38 75.54 65.38"/><polygon class="cls-2" points="75.54 63.32 73.85 63.32 73.85 65.01 75.54 65.01 75.54 63.32 75.54 63.32"/><path class="cls-2" d="M75.54,62A11.64,11.64,0,0,1,74,61.27h-.14V63h1.69V62Z"/><polygon class="cls-2" points="75.54 69.49 73.85 69.49 73.85 71.18 75.54 71.18 75.54 69.49 75.54 69.49"/><polygon class="cls-2" points="81.7 63.32 80.02 63.32 80.02 65.01 81.7 65.01 81.7 63.32 81.7 63.32"/><path class="cls-2" d="M81.7,62.87c-.44,0-.89.07-1.35.07H80v0H81.7v-.09Z"/><polygon class="cls-2" points="83.76 67.44 82.08 67.44 82.08 69.12 83.76 69.12 83.76 67.44 83.76 67.44"/><polygon class="cls-2" points="83.76 69.49 82.08 69.49 82.08 71.18 83.76 71.18 83.76 69.49 83.76 69.49"/><polygon class="cls-2" points="83.76 71.55 82.08 71.55 82.08 73.33 83.76 73.33 83.76 71.55 83.76 71.55"/><polygon class="cls-2" points="81.7 67.44 80.02 67.44 80.02 69.12 81.7 69.12 81.7 67.44 81.7 67.44"/><path class="cls-2" d="M79.65,62.92A13.2,13.2,0,0,1,78,62.73V63h1.68v0Z"/><polygon class="cls-2" points="79.65 65.38 77.97 65.38 77.97 67.06 79.65 67.06 79.65 65.38 79.65 65.38"/><polygon class="cls-2" points="79.65 63.32 77.97 63.32 77.97 65.01 79.65 65.01 79.65 63.32 79.65 63.32"/><polygon class="cls-2" points="81.7 69.49 80.02 69.49 80.02 71.18 81.7 71.18 81.7 69.49 81.7 69.49"/><polygon class="cls-2" points="81.7 71.55 80.02 71.55 80.02 73.33 81.7 73.33 81.7 71.55 81.7 71.55"/><polygon class="cls-2" points="79.65 67.44 77.97 67.44 77.97 69.12 79.65 69.12 79.65 67.44 79.65 67.44"/><polygon class="cls-2" points="88.24 23.9 89.93 23.9 89.93 22.21 88.24 22.21 88.24 23.9 88.24 23.9"/><polygon class="cls-2" points="96.47 36.23 98.15 36.23 98.15 34.55 96.47 34.55 96.47 36.23 96.47 36.23"/><polygon class="cls-2" points="94.41 34.18 96.09 34.18 96.09 32.49 94.41 32.49 94.41 34.18 94.41 34.18"/><polygon class="cls-2" points="96.47 38.29 98.15 38.29 98.15 36.6 96.47 36.6 96.47 38.29 96.47 38.29"/><polygon class="cls-2" points="96.47 32.12 98.15 32.12 98.15 30.43 96.47 30.43 96.47 32.12 96.47 32.12"/><polygon class="cls-2" points="94.41 36.23 96.09 36.23 96.09 34.55 94.41 34.55 94.41 36.23 94.41 36.23"/><polygon class="cls-2" points="96.47 30.07 98.15 30.07 98.15 28.38 96.47 28.38 96.47 30.07 96.47 30.07"/><polygon class="cls-2" points="94.41 38.29 96.09 38.29 96.09 36.6 94.41 36.6 94.41 38.29 94.41 38.29"/><polygon class="cls-2" points="96.47 28.01 98.15 28.01 98.15 26.32 96.47 26.32 96.47 28.01 96.47 28.01"/><polygon class="cls-2" points="98.15 24.27 96.47 24.27 96.47 25.95 98.15 25.95 98.15 24.27 98.15 24.27"/><polygon class="cls-2" points="96.47 34.18 98.15 34.18 98.15 32.49 96.47 32.49 96.47 34.18 96.47 34.18"/><path class="cls-2" d="M92,34.55h-.8c.1.25.21.53.31.84s.15.49.23.85H92V34.55Z"/><path class="cls-2" d="M91.81,36.6q.08.39.17.86V36.6Z"/><polygon class="cls-2" points="90.3 21.84 91.98 21.84 91.98 20.16 90.3 20.16 90.3 21.84 90.3 21.84"/><polygon class="cls-2" points="92.35 36.23 94.04 36.23 94.04 34.55 92.35 34.55 92.35 36.23 92.35 36.23"/><polygon class="cls-2" points="67.32 55.1 65.63 55.1 65.63 56.79 67.32 56.79 67.32 55.1 67.32 55.1"/><polygon class="cls-2" points="67.32 53.05 65.63 53.05 65.63 54.73 67.32 54.73 67.32 53.05 67.32 53.05"/><path class="cls-2" d="M65.63,48.93v1.69h1.66q-.16-.82-.27-1.69Z"/><polygon class="cls-2" points="67.32 59.21 65.63 59.21 65.63 60.9 67.32 60.9 67.32 59.21 67.32 59.21"/><polygon class="cls-2" points="67.32 50.99 65.63 50.99 65.63 52.67 67.32 52.67 67.32 50.99 67.32 50.99"/><path class="cls-2" d="M77.59,26.32H75.91V28h1.2l.48-.11V26.32Z"/><polygon class="cls-2" points="67.32 61.27 65.63 61.27 65.63 62.95 67.32 62.95 67.32 61.27 67.32 61.27"/><polygon class="cls-2" points="67.32 65.38 65.63 65.38 65.63 67.06 67.32 67.06 67.32 65.38 67.32 65.38"/><polygon class="cls-2" points="67.32 63.32 65.63 63.32 65.63 65.01 67.32 65.01 67.32 63.32 67.32 63.32"/><polygon class="cls-2" points="65.63 69.12 67.32 69.12 67.32 67.44 65.63 67.44 65.63 69.12 65.63 69.12"/><polygon class="cls-2" points="92.35 38.29 94.04 38.29 94.04 36.6 92.35 36.6 92.35 38.29 92.35 38.29"/><polygon class="cls-2" points="96.09 22.21 94.41 22.21 94.41 23.9 96.09 23.9 96.09 22.21 96.09 22.21"/><polygon class="cls-2" points="94.41 25.95 96.09 25.95 96.09 24.27 94.41 24.27 94.41 25.95 94.41 25.95"/><polygon class="cls-2" points="90.3 23.9 91.98 23.9 91.98 22.21 90.3 22.21 90.3 23.9 90.3 23.9"/><polygon class="cls-2" points="94.41 32.12 96.09 32.12 96.09 30.43 94.41 30.43 94.41 32.12 94.41 32.12"/><polygon class="cls-2" points="92.35 25.95 94.04 25.95 94.04 24.27 92.35 24.27 92.35 25.95 92.35 25.95"/><polygon class="cls-2" points="94.41 28.01 96.09 28.01 96.09 26.32 94.41 26.32 94.41 28.01 94.41 28.01"/><polygon class="cls-2" points="94.41 30.07 96.09 30.07 96.09 28.38 94.41 28.38 94.41 30.07 94.41 30.07"/><polygon class="cls-2" points="94.04 22.21 92.35 22.21 92.35 23.9 94.04 23.9 94.04 22.21 94.04 22.21"/><polygon class="cls-2" points="92.35 34.18 94.04 34.18 94.04 32.49 92.35 32.49 92.35 34.18 92.35 34.18"/><polygon class="cls-2" points="92.35 28.01 94.04 28.01 94.04 26.32 92.35 26.32 92.35 28.01 92.35 28.01"/><polygon class="cls-2" points="92.35 32.12 94.04 32.12 94.04 30.43 92.35 30.43 92.35 32.12 92.35 32.12"/><polygon class="cls-2" points="92.35 30.07 94.04 30.07 94.04 28.38 92.35 28.38 92.35 30.07 92.35 30.07"/><polygon class="cls-2" points="77.97 19.79 79.65 19.79 79.65 18.1 77.97 18.1 77.97 19.79 77.97 19.79"/><path class="cls-2" d="M82.07,27.72a12.75,12.75,0,0,1,1.56.29h.13V26.32H82.07v1.4Z"/><polygon class="cls-2" points="77.97 25.95 79.65 25.95 79.65 24.27 77.97 24.27 77.97 25.95 77.97 25.95"/><polygon class="cls-2" points="75.91 21.84 77.59 21.84 77.59 20.16 75.91 20.16 75.91 21.84 75.91 21.84"/><path class="cls-2" d="M78,27.82a13.27,13.27,0,0,1,1.68-.19V26.32H78v1.5Z"/><path class="cls-2" d="M71.8,30.06h1c.21-.16.43-.32.65-.46V28.38H71.8v1.69Z"/><polygon class="cls-2" points="77.97 21.84 79.65 21.84 79.65 20.16 77.97 20.16 77.97 21.84 77.97 21.84"/><polygon class="cls-2" points="80.02 21.84 81.7 21.84 81.7 20.16 80.02 20.16 80.02 21.84 80.02 21.84"/><polygon class="cls-2" points="80.02 25.95 81.7 25.95 81.7 24.27 80.02 24.27 80.02 25.95 80.02 25.95"/><path class="cls-2" d="M80,27.62h.33c.46,0,.91,0,1.35.07V26.32H80v1.3Z"/><polygon class="cls-2" points="77.97 23.9 79.65 23.9 79.65 22.21 77.97 22.21 77.97 23.9 77.97 23.9"/><polygon class="cls-2" points="74.51 15.38 76.19 15.38 76.19 13.69 74.51 13.69 74.51 15.38 74.51 15.38"/><polygon class="cls-2" points="49.44 50.82 51.13 50.82 51.13 49.13 49.44 49.13 49.44 50.82 49.44 50.82"/><polygon class="cls-2" points="52.28 61.06 53.97 61.06 53.97 59.38 52.28 59.38 52.28 61.06 52.28 61.06"/><polygon class="cls-2" points="71.8 21.84 73.48 21.84 73.48 20.16 71.8 20.16 71.8 21.84 71.8 21.84"/><path class="cls-2" d="M73.85,29.37a11.59,11.59,0,0,1,1.69-.85v-.14H73.85v1Z"/><polygon class="cls-2" points="73.85 28.01 75.54 28.01 75.54 26.32 73.85 26.32 73.85 28.01 73.85 28.01"/><polygon class="cls-2" points="71.8 25.95 73.48 25.95 73.48 24.27 71.8 24.27 71.8 25.95 71.8 25.95"/><polygon class="cls-2" points="71.8 28.01 73.48 28.01 73.48 26.32 71.8 26.32 71.8 28.01 71.8 28.01"/><polygon class="cls-2" points="73.85 21.84 75.54 21.84 75.54 20.16 73.85 20.16 73.85 21.84 73.85 21.84"/><polygon class="cls-2" points="75.91 25.95 77.59 25.95 77.59 24.27 75.91 24.27 75.91 25.95 75.91 25.95"/><polygon class="cls-2" points="75.91 23.9 77.59 23.9 77.59 22.21 75.91 22.21 75.91 23.9 75.91 23.9"/><path class="cls-2" d="M89.81,32.12h.12V30.44H88.27a10.93,10.93,0,0,1,1.53,1.68Z"/><polygon class="cls-2" points="86.19 21.84 87.87 21.84 87.87 20.16 86.19 20.16 86.19 21.84 86.19 21.84"/><polygon class="cls-2" points="88.24 28.01 89.93 28.01 89.93 26.32 88.24 26.32 88.24 28.01 88.24 28.01"/><polygon class="cls-2" points="90.3 25.95 91.98 25.95 91.98 24.27 90.3 24.27 90.3 25.95 90.3 25.95"/><polygon class="cls-2" points="86.19 19.79 87.87 19.79 87.87 18.1 86.19 18.1 86.19 19.79 86.19 19.79"/><polygon class="cls-2" points="88.24 30.07 89.93 30.07 89.93 28.38 88.24 28.38 88.24 30.07 88.24 30.07"/><polygon class="cls-2" points="88.24 21.84 89.93 21.84 89.93 20.16 88.24 20.16 88.24 21.84 88.24 21.84"/><polygon class="cls-2" points="90.3 30.07 91.98 30.07 91.98 28.38 90.3 28.38 90.3 30.07 90.3 30.07"/><polygon class="cls-2" points="90.3 28.01 91.98 28.01 91.98 26.32 90.3 26.32 90.3 28.01 90.3 28.01"/><path class="cls-2" d="M90.3,32.84A12.41,12.41,0,0,1,90.93,34l.09.21h1V32.49H90.3v.35Z"/><polygon class="cls-2" points="82.08 25.95 83.76 25.95 83.76 24.27 82.08 24.27 82.08 25.95 82.08 25.95"/><polygon class="cls-2" points="90.3 32.12 91.98 32.12 91.98 30.43 90.3 30.43 90.3 32.12 90.3 32.12"/><path class="cls-2" d="M85.82,28.38h-1q.51.19,1,.42v-.42Z"/><polygon class="cls-2" points="82.08 19.79 83.76 19.79 83.76 18.1 82.08 18.1 82.08 19.79 82.08 19.79"/><polygon class="cls-2" points="84.13 28.01 85.82 28.01 85.82 26.32 84.13 26.32 84.13 28.01 84.13 28.01"/><polygon class="cls-2" points="82.08 21.84 83.76 21.84 83.76 20.16 82.08 20.16 82.08 21.84 82.08 21.84"/><polygon class="cls-2" points="82.08 23.9 83.76 23.9 83.76 22.21 82.08 22.21 82.08 23.9 82.08 23.9"/><polygon class="cls-2" points="84.13 25.95 85.82 25.95 85.82 24.27 84.13 24.27 84.13 25.95 84.13 25.95"/><polygon class="cls-2" points="86.19 28.01 87.87 28.01 87.87 26.32 86.19 26.32 86.19 28.01 86.19 28.01"/><path class="cls-2" d="M86.19,29a10.63,10.63,0,0,1,1.65,1.08h0V28.38H86.19V29Z"/><polygon class="cls-2" points="84.13 23.9 85.82 23.9 85.82 22.21 84.13 22.21 84.13 23.9 84.13 23.9"/><polygon class="cls-2" points="84.13 19.79 85.82 19.79 85.82 18.1 84.13 18.1 84.13 19.79 84.13 19.79"/><polygon class="cls-2" points="84.13 21.84 85.82 21.84 85.82 20.16 84.13 20.16 84.13 21.84 84.13 21.84"/><polygon class="cls-2" points="59.09 53.05 57.41 53.05 57.41 54.73 59.09 54.73 59.09 53.05 59.09 53.05"/><polygon class="cls-2" points="59.09 57.16 57.41 57.16 57.41 58.84 59.09 58.84 59.09 57.16 59.09 57.16"/><polygon class="cls-2" points="59.09 55.1 57.41 55.1 57.41 56.79 59.09 56.79 59.09 55.1 59.09 55.1"/><polygon class="cls-2" points="59.09 48.94 57.41 48.94 57.41 50.62 59.09 50.62 59.09 48.94 59.09 48.94"/><polygon class="cls-2" points="59.47 60.9 61.15 60.9 61.15 59.21 59.47 59.21 59.47 60.9 59.47 60.9"/><polygon class="cls-2" points="59.47 58.84 61.15 58.84 61.15 57.16 59.47 57.16 59.47 58.84 59.47 58.84"/><path class="cls-2" d="M61.15,28V26.32H59.78l-.32.39V28Z"/><path class="cls-2" d="M59.1,27.17c-.21.27-.41.55-.61.84h.61v-.84Z"/><path class="cls-2" d="M61.15,24.83c-.36.36-.71.74-1,1.12h1V24.83Z"/><polygon class="cls-2" points="57.04 50.99 55.35 50.99 55.35 52.67 57.04 52.67 57.04 50.99 57.04 50.99"/><polygon class="cls-2" points="59.09 32.49 57.41 32.49 57.41 34.18 59.09 34.18 59.09 32.49 59.09 32.49"/><polygon class="cls-2" points="59.09 40.71 57.41 40.71 57.41 42.4 59.09 42.4 59.09 40.71 59.09 40.71"/><polygon class="cls-2" points="59.09 44.82 57.41 44.82 57.41 46.51 59.09 46.51 59.09 44.82 59.09 44.82"/><polygon class="cls-2" points="59.09 36.6 57.41 36.6 57.41 38.29 59.09 38.29 59.09 36.6 59.09 36.6"/><polygon class="cls-2" points="57.04 53.05 55.35 53.05 55.35 54.73 57.04 54.73 57.04 53.05 57.04 53.05"/><polygon class="cls-2" points="59.47 56.79 61.15 56.79 61.15 55.1 59.47 55.1 59.47 56.79 59.47 56.79"/><polygon class="cls-2" points="63.2 30.43 61.52 30.43 61.52 32.12 63.2 32.12 63.2 30.43 63.2 30.43"/><polygon class="cls-2" points="63.2 34.55 61.52 34.55 61.52 36.23 63.2 36.23 63.2 34.55 63.2 34.55"/><polygon class="cls-2" points="63.2 32.49 61.52 32.49 61.52 34.18 63.2 34.18 63.2 32.49 63.2 32.49"/><path class="cls-2" d="M60.45,65.38c.23.25.47.5.7.74v-.74Z"/><polygon class="cls-2" points="63.2 36.6 61.52 36.6 61.52 38.29 63.2 38.29 63.2 36.6 63.2 36.6"/><polygon class="cls-2" points="63.2 40.71 61.52 40.71 61.52 42.4 63.2 42.4 63.2 40.71 63.2 40.71"/><polygon class="cls-2" points="63.2 28.38 61.52 28.38 61.52 30.07 63.2 30.07 63.2 28.38 63.2 28.38"/><polygon class="cls-2" points="59.47 50.62 61.15 50.62 61.15 48.94 59.47 48.94 59.47 50.62 59.47 50.62"/><polygon class="cls-2" points="59.47 52.67 61.15 52.67 61.15 50.99 59.47 50.99 59.47 52.67 59.47 52.67"/><polygon class="cls-2" points="59.47 42.4 61.15 42.4 61.15 40.71 59.47 40.71 59.47 42.4 59.47 42.4"/><polygon class="cls-2" points="59.47 34.18 61.15 34.18 61.15 32.49 59.47 32.49 59.47 34.18 59.47 34.18"/><polygon class="cls-2" points="59.47 40.34 61.15 40.34 61.15 38.66 59.47 38.66 59.47 40.34 59.47 40.34"/><path class="cls-2" d="M71.8,71.55v1c.55.17,1.11.31,1.69.45V71.55Z"/><path class="cls-2" d="M75.54,71.55H73.85v1.52c.45.1,1.07.15,1.67.22l0,0V71.55Z"/><path class="cls-2" d="M65.63,69.49v.25c.54.34,1.11.66,1.69,1V69.49Z"/><circle class="cls-3" cx="65.26" cy="69.49"/><path class="cls-2" d="M69.37,71.18V69.49H67.69v1.4l.58.28Z"/><path class="cls-2" d="M69.08,71.55l.29.12v-.12Z"/><path class="cls-2" d="M69.74,71.55v.27c.55.22,1.11.42,1.69.61v-.87Z"/><polygon class="cls-2" points="63.2 46.88 61.52 46.88 61.52 48.56 63.2 48.56 63.2 46.88 63.2 46.88"/><path class="cls-2" d="M65.26,69.12V67.44H63.58v.86q.55.43,1.13.83Z"/><polygon class="cls-2" points="57.04 34.55 55.35 34.55 55.35 36.23 57.04 36.23 57.04 34.55 57.04 34.55"/><polygon class="cls-2" points="57.04 42.77 55.35 42.77 55.35 44.45 57.04 44.45 57.04 42.77 57.04 42.77"/><path class="cls-2" d="M58.77,63.32l.32.43v-.43Z"/><path class="cls-2" d="M57,58.84V57.16H55.4c.22.57.46,1.14.72,1.69Z"/><path class="cls-2" d="M62.54,67.44l.67.56v-.56Z"/><path class="cls-2" d="M59.1,63V61.27H57.41c.35.58.72,1.13,1.1,1.68Z"/><path class="cls-2" d="M61.15,65V63.32H59.47v.9q.32.4.66.78Z"/><path class="cls-2" d="M63.21,67.06V65.38H61.52V66.5l.61.57Z"/><polygon class="cls-2" points="65.26 38.66 63.58 38.66 63.58 40.34 65.26 40.34 65.26 38.66 65.26 38.66"/><polygon class="cls-2" points="65.26 40.71 63.58 40.71 63.58 42.4 65.26 42.4 65.26 40.71 65.26 40.71"/><polygon class="cls-2" points="65.26 32.49 63.58 32.49 63.58 34.18 65.26 34.18 65.26 32.49 65.26 32.49"/><polygon class="cls-2" points="65.26 42.77 63.58 42.77 63.58 44.45 65.26 44.45 65.26 42.77 65.26 42.77"/><polygon class="cls-2" points="65.26 50.99 63.58 50.99 63.58 52.67 65.26 52.67 65.26 50.99 65.26 50.99"/><polygon class="cls-2" points="65.26 30.43 63.58 30.43 63.58 32.12 65.26 32.12 65.26 30.43 65.26 30.43"/><polygon class="cls-2" points="65.26 53.05 63.58 53.05 63.58 54.73 65.26 54.73 65.26 53.05 65.26 53.05"/><polygon class="cls-2" points="65.26 48.94 63.58 48.94 63.58 50.62 65.26 50.62 65.26 48.94 65.26 48.94"/><polygon class="cls-2" points="65.26 46.88 63.58 46.88 63.58 48.56 65.26 48.56 65.26 46.88 65.26 46.88"/><polygon class="cls-2" points="65.26 44.82 63.58 44.82 63.58 46.51 65.26 46.51 65.26 44.82 65.26 44.82"/><polygon class="cls-2" points="63.2 55.1 61.52 55.1 61.52 56.79 63.2 56.79 63.2 55.1 63.2 55.1"/><polygon class="cls-2" points="63.2 59.21 61.52 59.21 61.52 60.9 63.2 60.9 63.2 59.21 63.2 59.21"/><polygon class="cls-2" points="61.52 65.01 63.2 65.01 63.2 63.32 61.52 63.32 61.52 65.01 61.52 65.01"/><polygon class="cls-2" points="63.2 50.99 61.52 50.99 61.52 52.67 63.2 52.67 63.2 50.99 63.2 50.99"/><polygon class="cls-2" points="63.2 53.05 61.52 53.05 61.52 54.73 63.2 54.73 63.2 53.05 63.2 53.05"/><polygon class="cls-2" points="63.2 57.16 61.52 57.16 61.52 58.84 63.2 58.84 63.2 57.16 63.2 57.16"/><polygon class="cls-2" points="65.26 55.1 63.58 55.1 63.58 56.79 65.26 56.79 65.26 55.1 65.26 55.1"/><polygon class="cls-2" points="63.2 61.27 61.52 61.27 61.52 62.95 63.2 62.95 63.2 61.27 63.2 61.27"/><path class="cls-2" d="M63.21,23q-.56.46-1.09.94h1.09V23Z"/><path class="cls-2" d="M86.9,17.73l-.72-.16v.16Z"/><path class="cls-2" d="M92,19.79v-.3c-.55-.26-1.11-.49-1.68-.71v1Z"/><path class="cls-2" d="M88.24,19.79h1.68V18.63c-.53-.19-1.07-.37-1.62-.53h-.06v1.68Z"/><path class="cls-2" d="M85.82,17.73V17.5c-.55-.11-1.12-.2-1.69-.27v.5Z"/><path class="cls-2" d="M79.65,17.73V17c-.57,0-1.13,0-1.68.1v.6Z"/><path class="cls-2" d="M83.76,17.73v-.54c-.56-.06-1.12-.11-1.69-.14v.68Z"/><path class="cls-2" d="M98.52,24.27V26h1.69v-.14q-.66-.8-1.4-1.54Z"/><path class="cls-2" d="M96.46,23.9h1.68v-.26q-.8-.75-1.68-1.42h0V23.9Z"/><path class="cls-2" d="M92.59,19.79l-.24-.12v.12Z"/><path class="cls-2" d="M96,21.84c-.5-.37-1-.71-1.57-1v1Z"/><polygon class="cls-2" points="65.26 57.16 63.58 57.16 63.58 58.84 65.26 58.84 65.26 57.16 65.26 57.16"/><path class="cls-2" d="M92.35,20.16v1.69H94V20.57l-.74-.41Z"/><path class="cls-2" d="M65.26,21.44l-.59.4h.59v-.4Z"/><polygon class="cls-2" points="65.26 63.32 63.58 63.32 63.58 65.01 65.26 65.01 65.26 63.32 65.26 63.32"/><path class="cls-2" d="M65.26,23.9V22.21h-1.1l-.59.44V23.9Z"/><polygon class="cls-2" points="63.58 67.06 65.26 67.06 65.26 65.38 63.58 65.38 63.58 67.06 63.58 67.06"/><polygon class="cls-2" points="65.26 59.21 63.58 59.21 63.58 60.9 65.26 60.9 65.26 59.21 65.26 59.21"/><polygon class="cls-2" points="65.26 61.27 63.58 61.27 63.58 62.95 65.26 62.95 65.26 61.27 65.26 61.27"/><path class="cls-2" d="M73.48,19.79V18.1h-.88l-.81.24v1.45Z"/><path class="cls-2" d="M67.32,21.84V20.22q-.87.46-1.69,1v.64Z"/><path class="cls-2" d="M69.37,19.23q-.62.26-1.22.56h1.22v-.56Z"/><path class="cls-2" d="M71.43,19.79V18.46c-.57.19-1.14.39-1.69.62v.7Z"/><path class="cls-2" d="M69.06,14.95h-.62l-1.07,0v1.62h1.69V14.95Z"/><polygon class="cls-2" points="36.29 26.24 37.98 26.24 37.98 24.56 36.29 24.56 36.29 26.24 36.29 26.24"/><polygon class="cls-2" points="46.11 31 47.79 31 47.79 29.32 46.11 29.32 46.11 31 46.11 31"/><polygon class="cls-2" points="46.42 26.82 48.1 26.82 48.1 25.14 46.42 25.14 46.42 26.82 46.42 26.82"/><polygon class="cls-2" points="39.03 38.05 40.72 38.05 40.72 36.37 39.03 36.37 39.03 38.05 39.03 38.05"/><polygon class="cls-2" points="46.04 36.16 47.73 36.16 47.73 34.47 46.04 34.47 46.04 36.16 46.04 36.16"/><polygon class="cls-2" points="52.69 31.49 54.37 31.49 54.37 29.81 52.69 29.81 52.69 31.49 52.69 31.49"/><polygon class="cls-2" points="43.18 25.71 44.87 25.71 44.87 24.03 43.18 24.03 43.18 25.71 43.18 25.71"/><polygon class="cls-2" points="46.04 43.54 47.73 43.54 47.73 41.86 46.04 41.86 46.04 43.54 46.04 43.54"/><polygon class="cls-2" points="44.68 19.15 46.36 19.15 46.36 17.47 44.68 17.47 44.68 19.15 44.68 19.15"/><polygon class="cls-2" points="46.23 12.39 47.92 12.39 47.92 10.71 46.23 10.71 46.23 12.39 46.23 12.39"/><polygon class="cls-2" points="53.8 8.48 55.49 8.48 55.49 6.8 53.8 6.8 53.8 8.48 53.8 8.48"/><polygon class="cls-2" points="51.87 22.36 53.56 22.36 53.56 20.68 51.87 20.68 51.87 22.36 51.87 22.36"/><path class="cls-2" d="M69.06,14.95h-.62l-1.07,0v1.62h1.69V14.95Z"/><path class="cls-2" d="M65.35,18.28h-.62l-1.07,0v1.62h1.68V18.28Z"/><polygon class="cls-2" points="51.03 41.03 52.71 41.03 52.71 39.35 51.03 39.35 51.03 41.03 51.03 41.03"/><polygon class="cls-2" points="36.29 26.24 37.98 26.24 37.98 24.56 36.29 24.56 36.29 26.24 36.29 26.24"/><polygon class="cls-2" points="46.11 31 47.79 31 47.79 29.32 46.11 29.32 46.11 31 46.11 31"/><polygon class="cls-2" points="39.03 38.05 40.72 38.05 40.72 36.37 39.03 36.37 39.03 38.05 39.03 38.05"/><polygon class="cls-2" points="46.04 36.16 47.73 36.16 47.73 34.47 46.04 34.47 46.04 36.16 46.04 36.16"/><polygon class="cls-2" points="52.69 31.49 54.37 31.49 54.37 29.81 52.69 29.81 52.69 31.49 52.69 31.49"/><polygon class="cls-2" points="40.59 29.54 42.27 29.54 42.27 27.86 40.59 27.86 40.59 29.54 40.59 29.54"/><polygon class="cls-2" points="46.04 43.54 47.73 43.54 47.73 41.86 46.04 41.86 46.04 43.54 46.04 43.54"/><polygon class="cls-2" points="44.68 19.15 46.36 19.15 46.36 17.47 44.68 17.47 44.68 19.15 44.68 19.15"/><polygon class="cls-2" points="46.23 12.39 47.92 12.39 47.92 10.71 46.23 10.71 46.23 12.39 46.23 12.39"/><polygon class="cls-2" points="53.8 8.48 55.49 8.48 55.49 6.8 53.8 6.8 53.8 8.48 53.8 8.48"/><polygon class="cls-2" points="51.87 22.36 53.56 22.36 53.56 20.68 51.87 20.68 51.87 22.36 51.87 22.36"/><polygon class="cls-2" points="55.67 19.76 57.36 19.76 57.36 18.08 55.67 18.08 55.67 19.76 55.67 19.76"/><polygon class="cls-2" points="56.42 25.81 58.1 25.81 58.1 24.13 56.42 24.13 56.42 25.81 56.42 25.81"/><path class="cls-2" d="M91.54,54.23c-1.66,5.54-5.65,8.66-11.26,8.66a13.63,13.63,0,0,1-2.35-.2V65H82v4.11h2.13v4.21c11.37-1.37,20.32-8.8,21.21-22.27H92.06c-.14,1-.3,2.07-.52,3.15Z"/><path class="cls-2" d="M96.45,26.32V30.4h-2v2.1H92.1V28.3H84.66a10.92,10.92,0,0,1,6.2,5.63,13.29,13.29,0,0,1,.56,1.41,19.65,19.65,0,0,1,.64,3h13.06a21.66,21.66,0,0,0-4.54-12Z"/><polygon class="cls-2" points="37.29 102.51 40.29 102.51 40.29 102.96 39.1 102.96 39.1 106.24 38.48 106.24 38.48 102.96 37.29 102.96 37.29 102.51 37.29 102.51"/><path class="cls-2" d="M40.88,102.51h.62v1.63a.54.54,0,0,0,.19,0,.4.4,0,0,0,.17-.11,2.13,2.13,0,0,0,.2-.25c.08-.11.34-.52.78-1.24h.65l-.74,1.12a4,4,0,0,1-.45.57l1.22,2h-.69l-1-1.72-.18,0-.2,0v1.65h-.62v-3.73Z"/><path class="cls-2" d="M45.08,106.31a1.1,1.1,0,0,1-.84-.3,1.13,1.13,0,0,1-.28-.82,1.1,1.1,0,0,1,.38-.89,2,2,0,0,1,1.23-.33h.83v-.21a.9.9,0,0,0-.19-.65.81.81,0,0,0-.61-.2,1,1,0,0,0-.61.14.6.6,0,0,0-.23.45l-.65-.06c.11-.67.61-1,1.5-1a1.56,1.56,0,0,1,1.06.32,1.23,1.23,0,0,1,.35.94v1.6a1,1,0,0,0,.07.42.29.29,0,0,0,.28.14.75.75,0,0,0,.2,0v.39a2.18,2.18,0,0,1-.48.06.64.64,0,0,1-.5-.18,1,1,0,0,1-.18-.57h0a1.51,1.51,0,0,1-.55.61,1.61,1.61,0,0,1-.77.18Zm.14-.47a1.23,1.23,0,0,0,.61-.16,1.18,1.18,0,0,0,.42-.43,1.11,1.11,0,0,0,.15-.55v-.31h-.68a2.16,2.16,0,0,0-.66.09.72.72,0,0,0-.35.25.8.8,0,0,0-.12.45.58.58,0,0,0,.63.64Z"/><polygon class="cls-2" points="48.7 102.51 48.7 104.08 50.38 104.08 50.38 102.51 51 102.51 51 106.24 50.38 106.24 50.38 104.53 48.7 104.53 48.7 106.24 48.07 106.24 48.07 102.51 48.7 102.51 48.7 102.51"/><path class="cls-2" d="M52.57,102.51v2l0,1,1.72-3h.68v3.73h-.59V104c0-.08,0-.21,0-.38s0-.28,0-.35l-1.75,3H52v-3.73Z"/><path class="cls-2" d="M60.28,103H59.22c-.08.62-.18,1.17-.28,1.63a7.25,7.25,0,0,1-.37,1.19h1.71V103Zm1.12,4.69h-.56v-1.41H58v1.41h-.56v-1.86h.41a4.44,4.44,0,0,0,.45-1.22,19.53,19.53,0,0,0,.35-2.06H60.9v3.28h.5v1.86Z"/><path class="cls-2" d="M64.54,106.24V103H63.25c-.13,1-.24,1.67-.32,2a3.5,3.5,0,0,1-.23.79.94.94,0,0,1-.32.4.86.86,0,0,1-.49.13,1.24,1.24,0,0,1-.33,0v-.45a.75.75,0,0,0,.24,0,.34.34,0,0,0,.3-.19,2.21,2.21,0,0,0,.21-.66q.1-.47.21-1.38l.16-1.12h2.47v3.73Z"/><path class="cls-2" d="M67.5,104.65l-1.08,1.58h-.71l1.19-1.63a1,1,0,0,1-.86-1.07.88.88,0,0,1,.37-.78,1.91,1.91,0,0,1,1.08-.25H69v3.73h-.62v-1.58Zm.87-1.71h-.81a1.1,1.1,0,0,0-.66.16.58.58,0,0,0-.2.48.63.63,0,0,0,.18.49,1,1,0,0,0,.61.16h.87v-1.28Z"/><path class="cls-2" d="M72.5,102.51v1.39a.5.5,0,0,0,.57.56,3.72,3.72,0,0,0,.95-.16v-1.78h.62v3.73H74v-1.59l-.27.1a2.52,2.52,0,0,1-.94.2.88.88,0,0,1-.69-.27,1.05,1.05,0,0,1-.25-.76v-1.41Z"/><path class="cls-2" d="M76.22,102.51v2l0,1,1.72-3h.68v3.73H78V104c0-.08,0-.21,0-.38s0-.28,0-.35l-1.75,3h-.66v-3.73Z"/><path class="cls-2" d="M80,104.35a2,2,0,0,0,.24,1.11.79.79,0,0,0,.71.35.85.85,0,0,0,.55-.18.83.83,0,0,0,.28-.55l.63,0A1.32,1.32,0,0,1,82,106a1.67,1.67,0,0,1-2.18-.17,2.21,2.21,0,0,1-.41-1.45,2.18,2.18,0,0,1,.41-1.43,1.45,1.45,0,0,1,1.19-.49,1.51,1.51,0,0,1,1,.3,1.3,1.3,0,0,1,.47.82l-.64,0a.8.8,0,0,0-.24-.49.77.77,0,0,0-.56-.18.78.78,0,0,0-.71.33,2,2,0,0,0-.23,1.1Z"/><polygon class="cls-2" points="82.74 102.51 85.73 102.51 85.73 102.96 84.55 102.96 84.55 106.24 83.92 106.24 83.92 102.96 82.74 102.96 82.74 102.51 82.74 102.51"/><path class="cls-2" d="M87.75,104.08a1.86,1.86,0,0,1,1.07.25.92.92,0,0,1,.36.81,1,1,0,0,1-.37.81,1.72,1.72,0,0,1-1.06.28H86.34v-3.73H87v1.58ZM87,105.8h.7a1.1,1.1,0,0,0,.66-.16.59.59,0,0,0,.2-.49.54.54,0,0,0-.2-.47,1.08,1.08,0,0,0-.66-.16H87v1.29Zm2.86.44v-3.73h.61v3.73Z"/><polygon class="cls-2" points="93.7 106.24 92.69 104.7 91.68 106.24 91.01 106.24 92.34 104.31 91.08 102.51 91.76 102.51 92.69 103.95 93.62 102.51 94.31 102.51 93.05 104.31 94.39 106.24 93.7 106.24 93.7 106.24"/><path class="cls-2" d="M99.31,103H98.26c-.08.62-.18,1.17-.28,1.63a7.25,7.25,0,0,1-.37,1.19h1.71V103Zm1.12,4.69h-.56v-1.41H97.06v1.41H96.5v-1.86h.41a4.43,4.43,0,0,0,.45-1.22,19.49,19.49,0,0,0,.35-2.06h2.22v3.28h.5v1.86Z"/><path class="cls-2" d="M101.65,102.51v2l0,1,1.72-3H104v3.73h-.59V104c0-.08,0-.21,0-.38s0-.28,0-.35l-1.75,3H101v-3.73Z"/><path class="cls-2" d="M106.45,102.51a1.81,1.81,0,0,1,1,.24.79.79,0,0,1,.35.69.77.77,0,0,1-.2.54,1,1,0,0,1-.57.28v0a1.05,1.05,0,0,1,.66.28.8.8,0,0,1,.23.59.94.94,0,0,1-.38.79,1.71,1.71,0,0,1-1,.28H105v-3.73Zm-.83,3.27h.82a1.12,1.12,0,0,0,.66-.15.54.54,0,0,0,.2-.47.57.57,0,0,0-.2-.49,1.33,1.33,0,0,0-.7-.14h-.78v1.25Zm0-2.81v1.11h.75A1.18,1.18,0,0,0,107,104a.48.48,0,0,0,.19-.43.49.49,0,0,0-.18-.42,1,1,0,0,0-.59-.13Z"/><path class="cls-2" d="M109.59,106.31a1.1,1.1,0,0,1-.84-.3,1.13,1.13,0,0,1-.28-.82,1.1,1.1,0,0,1,.38-.89,2,2,0,0,1,1.23-.33h.83v-.21a.9.9,0,0,0-.19-.65.81.81,0,0,0-.61-.2,1,1,0,0,0-.61.14.6.6,0,0,0-.23.45l-.65-.06c.11-.67.61-1,1.5-1a1.56,1.56,0,0,1,1.06.32,1.23,1.23,0,0,1,.35.94v1.6a1,1,0,0,0,.07.42.29.29,0,0,0,.28.14.75.75,0,0,0,.2,0v.39a2.18,2.18,0,0,1-.48.06.64.64,0,0,1-.5-.18,1,1,0,0,1-.18-.57h0a1.51,1.51,0,0,1-.55.61,1.61,1.61,0,0,1-.77.18Zm.14-.47a1.23,1.23,0,0,0,.61-.16,1.18,1.18,0,0,0,.42-.43,1.11,1.11,0,0,0,.15-.55v-.31h-.68a2.16,2.16,0,0,0-.66.09.72.72,0,0,0-.35.25.8.8,0,0,0-.12.45.58.58,0,0,0,.63.64Z"/><polygon class="cls-2" points="113.2 102.51 113.2 104.08 114.88 104.08 114.88 102.51 115.5 102.51 115.5 106.24 114.88 106.24 114.88 104.53 113.2 104.53 113.2 106.24 112.58 106.24 112.58 102.51 113.2 102.51 113.2 102.51"/><path class="cls-2" d="M119.62,104.37a2.12,2.12,0,0,1-.43,1.46,1.6,1.6,0,0,1-1.25.48,1.53,1.53,0,0,1-1.24-.5,2.2,2.2,0,0,1-.42-1.44q0-1.93,1.67-1.93a1.57,1.57,0,0,1,1.26.47,2.23,2.23,0,0,1,.4,1.46Zm-.65,0a2.08,2.08,0,0,0-.23-1.12.84.84,0,0,0-.77-.35.89.89,0,0,0-.78.35,2,2,0,0,0-.25,1.12,2.1,2.1,0,0,0,.24,1.11.84.84,0,0,0,.76.37.89.89,0,0,0,.8-.36,2,2,0,0,0,.24-1.12Z"/><path class="cls-2" d="M121.87,102.51a1.81,1.81,0,0,1,1,.24.79.79,0,0,1,.35.69.77.77,0,0,1-.2.54,1,1,0,0,1-.57.28v0a1.05,1.05,0,0,1,.66.28.8.8,0,0,1,.23.59.94.94,0,0,1-.38.79,1.71,1.71,0,0,1-1,.28h-1.54v-3.73Zm-.83,3.27h.82a1.12,1.12,0,0,0,.66-.15.54.54,0,0,0,.2-.47.57.57,0,0,0-.2-.49,1.33,1.33,0,0,0-.7-.14H121v1.25Zm0-2.81v1.11h.75a1.18,1.18,0,0,0,.63-.13.48.48,0,0,0,.19-.43.49.49,0,0,0-.18-.42,1,1,0,0,0-.59-.13Z"/></svg>