<svg xmlns="http://www.w3.org/2000/svg" viewBox="0 0 180 46"><title>souzmlogo</title><path d="M154.88241,21.32024a2.05449,2.05449,0,1,1-2.05307,2.054,2.05551,2.05551,0,0,1,2.05307-2.054Z" style="fill:#00bfd6;fill-rule:evenodd"/><path d="M91.0977,18.47652l-1.26617.96939a6.90792,6.90792,0,0,0-2.51592-2.062,7.3658,7.3658,0,0,0-3.22282-.70222,7.13367,7.13367,0,0,0-3.5563.9219,6.592,6.592,0,0,0-2.53374,2.46978,6.80846,6.80846,0,0,0-.90258,3.4881,6.5378,6.5378,0,0,0,2.01309,4.88831,6.97638,6.97638,0,0,0,5.07832,1.9604,7.1502,7.1502,0,0,0,5.64-2.63016l1.26617.95951a8.0943,8.0943,0,0,1-2.99847,2.35361,9.42036,9.42036,0,0,1-4.00644.833,8.2482,8.2482,0,0,1-8.692-8.494,7.91146,7.91146,0,0,1,2.47074-5.91087A8.547,8.547,0,0,1,84.06929,15.122a9.16732,9.16732,0,0,1,4.05865.88048,7.92276,7.92276,0,0,1,2.96976,2.474Z" style="fill:#435363"/><path d="M102.63908,15.122a8.36105,8.36105,0,0,1,6.11075,2.42556,8.05611,8.05611,0,0,1,2.4599,5.96872,8.36568,8.36568,0,0,1-8.439,8.40979,8.24572,8.24572,0,0,1-6.03219-2.43732,7.99243,7.99243,0,0,1-2.46038-5.89348,8.50178,8.50178,0,0,1,1.12129-4.27639,8.12051,8.12051,0,0,1,3.05631-3.08266,8.23108,8.23108,0,0,1,4.18329-1.11422Zm.07147,1.55963a6.878,6.878,0,0,0-5.87889,3.41378,6.92794,6.92794,0,0,0-.89411,3.49561,6.7448,6.7448,0,0,0,6.773,6.77536,6.90655,6.90655,0,0,0,3.4646-.90258,6.47617,6.47617,0,0,0,2.48668-2.47074,6.93069,6.93069,0,0,0,.8904-3.48011,6.768,6.768,0,0,0-.8904-3.44389,6.67052,6.67052,0,0,0-2.51211-2.46226,6.82394,6.82394,0,0,0-3.43917-.92517Z" style="fill:#435363"/><path d="M116.07733,22.67768h2.79247a8.29273,8.29273,0,0,1,8.24093-7.55566,8.2676,8.2676,0,0,1,6.05339,2.42508,8.07868,8.07868,0,0,1,2.44676,5.9692,8.1561,8.1561,0,0,1-2.42513,5.95879,8.04205,8.04205,0,0,1-5.94516,2.451,8.23567,8.23567,0,0,1-8.37078-7.756h-2.79247v7.70756H114.48V15.0938h1.5973v7.58388Zm17.89343.83862a6.46378,6.46378,0,0,0-2.04035-4.89867,6.66146,6.66146,0,0,0-4.72374-1.936,6.49771,6.49771,0,0,0-4.68087,1.96136,6.62614,6.62614,0,0,0-2.01449,4.95088,6.45778,6.45778,0,0,0,1.99474,4.84458,6.73369,6.73369,0,0,0,11.46471-4.92217Z" style="fill:#435363"/><path d="M138.639,17.07958a5.88164,5.88164,0,0,1,4.48947-1.95756,5.34835,5.34835,0,0,1,3.50828,1.13632,3.61426,3.61426,0,0,1,1.38283,2.93827,3.77016,3.77016,0,0,1-2.58971,3.65884q3.40767.97994,3.40767,4.24157a4.4227,4.4227,0,0,1-1.52394,3.50269,6.15877,6.15877,0,0,1-4.17669,1.32638,6.82739,6.82739,0,0,1-3.2181-.71349,7.35312,7.35312,0,0,1-2.57608-2.49617l1.33153-.73045a6.21353,6.21353,0,0,0,2.24731,2.09352,5.28385,5.28385,0,0,0,2.17068.46473,4.46435,4.46435,0,0,0,2.79387-.87956,3.16652,3.16652,0,0,0-.3476-5.24251,4.18434,4.18434,0,0,0-1.36356-.52209,14.63548,14.63548,0,0,0-2.12218-.10909h-.29115V22.38745h.57522q3.83731,0,3.8371-2.88273a2.71756,2.71756,0,0,0-.87581-2.12411,3.18272,3.18272,0,0,0-2.21436-.78829A4.67,4.67,0,0,0,139.82,18.05225l-1.181-.97266Z" style="fill:#435363"/><polygon points="160.39 31.912 162.775 15.066 163.132 15.066 170.139 29.038 177.103 15.066 177.362 15.066 179.841 31.912 178.174 31.912 176.446 20.458 170.346 31.912 169.896 31.912 163.736 20.369 162.085 31.912 160.39 31.912 160.39 31.912" style="fill:#435363"/><path d="M7.14305,39.25413h.19405l1.75229,5.12629H8.39208L7.10592,40.6148l-1.9997,3.76562H4.98229l-1.999-3.78113-1.2852,3.78113H1.00177L2.7726,39.25413h.18061l2.097,4.01014,2.0928-4.01014Zm7.31883,3.42693.56188.29394a2.99494,2.99494,0,0,1-.6411.86121,2.55651,2.55651,0,0,1-.81772.49907,2.88949,2.88949,0,0,1-1.02935.17117,2.50761,2.50761,0,0,1-1.99074-.82075,2.736,2.736,0,0,1-.7187-1.8541,2.7049,2.7049,0,0,1,.6084-1.73418,2.5015,2.5015,0,0,1,2.06439-.96794,2.59006,2.59006,0,0,1,2.12806.99337,2.74245,2.74245,0,0,1,.57358,1.74733h-4.6905a2.04989,2.04989,0,0,0,.58037,1.45805,1.8682,1.8682,0,0,0,1.38427.56963,2.30224,2.30224,0,0,0,.77654-.13452,2.053,2.053,0,0,0,.64062-.35891,3.05748,3.05748,0,0,0,.57-.72337Zm.00568-1.38046a2.17481,2.17481,0,0,0-.39157-.84383,1.8437,1.8437,0,0,0-.68012-.5075,2.12444,2.12444,0,0,0-.8878-.19333,1.93031,1.93031,0,0,0-1.32026.48448,2.17659,2.17659,0,0,0-.61,1.06018Zm6.93738-4.141v.627a13.44227,13.44227,0,0,1-1.64107.11521,10.031,10.031,0,0,0-1.29931.1115,2.02684,2.02684,0,0,0-.79465.31749,1.80643,1.80643,0,0,0-.57006.71162,3.07971,3.07971,0,0,0-.28879,1.063l-.0694.72529a2.27966,2.27966,0,0,1,.89979-1.2916,2.45987,2.45987,0,0,1,1.38331-.40963,2.59106,2.59106,0,0,1,1.9343.79817,2.6327,2.6327,0,0,1,.7775,1.904,2.67459,2.67459,0,0,1-2.71416,2.67486,2.67964,2.67964,0,0,1-2.01993-.87672,3.91878,3.91878,0,0,1-.82639-2.76189,5.05253,5.05253,0,0,1,.30338-1.9905,2.46906,2.46906,0,0,1,.69587-.97175,2.95277,2.95277,0,0,1,1.01384-.46608,11.58806,11.58806,0,0,1,2.33034-.21308,7.51337,7.51337,0,0,0,.88544-.0668Zm-.35232,4.68655a1.99832,1.99832,0,0,0-.60248-1.46041,1.96612,1.96612,0,0,0-2.8508.00279,2.07013,2.07013,0,0,0-.02259,2.89781,2.06083,2.06083,0,0,0,2.89429-.00188,1.97637,1.97637,0,0,0,.58157-1.43831Zm6.29536.83487.56351.29394a3.03846,3.03846,0,0,1-.64062.86121,2.58378,2.58378,0,0,1-.81839.49907,2.89687,2.89687,0,0,1-1.02868.17117,2.50448,2.50448,0,0,1-1.991-.82075,2.73417,2.73417,0,0,1-.71913-1.8541,2.70174,2.70174,0,0,1,.60932-1.73418,2.49987,2.49987,0,0,1,2.0627-.96794,2.5825,2.5825,0,0,1,2.12642.99337,2.72919,2.72919,0,0,1,.576,1.74733H23.39758a2.0524,2.0524,0,0,0,.57994,1.45805,1.87093,1.87093,0,0,0,1.38634.56963,2.29577,2.29577,0,0,0,.7749-.13452,2.069,2.069,0,0,0,.64062-.35891,2.981,2.981,0,0,0,.56862-.72337Zm.00544-1.38046a2.14782,2.14782,0,0,0-.38969-.84383,1.849,1.849,0,0,0-.68108-.5075,2.11444,2.11444,0,0,0-.88544-.19333,1.92845,1.92845,0,0,0-1.32166.48448,2.1744,2.1744,0,0,0-.61168,1.06018Zm6.365,3.07982h-.69895l-1.753-3.73739-1.7257,3.73739H28.828l2.36936-5.12629h.11829l2.40278,5.12629Zm1.67373-3.09817h.63706a4.67349,4.67349,0,0,1,1.1881.11665,1.39194,1.39194,0,0,1,.74244.52209,1.52926,1.52926,0,0,1-.14016,2.00929,1.83532,1.83532,0,0,1-1.35835.45014H34.732V39.25413h.66013v2.02812Zm.024.6072v1.93174h.77115c.908,0,1.35927-.31422,1.35927-.93977a1.056,1.056,0,0,0-.14555-.52633.78036.78036,0,0,0-.42639-.36214,3.176,3.176,0,0,0-.9875-.1035Zm7.61446.01931H40.00152v2.47166h-.66461V39.25413h.66461v2.03751h3.02905V39.25413h.66529v5.12629h-.66529V41.90876Zm2.8115-.62651h.63778a4.67231,4.67231,0,0,1,1.18738.11665,1.39626,1.39626,0,0,1,.74153.52209,1.53069,1.53069,0,0,1-.13852,2.00929,1.84179,1.84179,0,0,1-1.36.45014H45.18262V39.25413h.65946v2.02812Zm.02466.6072v1.93174h.76951q1.362,0,1.361-.93977a1.05145,1.05145,0,0,0-.148-.52633.78018.78018,0,0,0-.424-.36214,3.201,3.201,0,0,0-.98985-.1035Zm3.78161-2.63532H50.312v5.12629h-.66365V39.25413Zm6.46986,3.42693.56394.29394a3.02418,3.02418,0,0,1-.6411.86121,2.56474,2.56474,0,0,1-.81839.49907,2.89305,2.89305,0,0,1-1.02863.17117,2.51562,2.51562,0,0,1-1.99359-.82075,2.74371,2.74371,0,0,1-.71658-1.8541,2.70582,2.70582,0,0,1,.60937-1.73418,2.49822,2.49822,0,0,1,2.06246-.96794,2.59089,2.59089,0,0,1,2.129.99337,2.748,2.748,0,0,1,.57358,1.74733H52.16706a2.05529,2.05529,0,0,0,.57946,1.45805,1.87179,1.87179,0,0,0,1.38754.56963,2.304,2.304,0,0,0,.7749-.13452,2.06488,2.06488,0,0,0,.64038-.35891,3.03471,3.03471,0,0,0,.56886-.72337Zm.00708-1.38046a2.18243,2.18243,0,0,0-.39157-.84383,1.86712,1.86712,0,0,0-.6792-.5075,2.134,2.134,0,0,0-.88847-.19333,1.92692,1.92692,0,0,0-1.32074.48448,2.17184,2.17184,0,0,0-.61052,1.06018Zm4.092-2.04647h3.40887v.56958H62.248v4.5567h-.66461v-4.5567H60.21726v-.56958Zm4.31521,0h.666v2.1584l2.41593-2.1584h.91674l-2.62458,2.339,2.83385,2.78727H67.795l-2.38626-2.3696-.21028.183v2.18662h-.666V39.25413Zm10.07577,0v5.12629h-.66316v-.881a2.84345,2.84345,0,0,1-.94213.75631,2.61,2.61,0,0,1-1.14056.25069,2.55685,2.55685,0,0,1-1.88-.78733,2.62912,2.62912,0,0,1-.77842-1.91575,2.681,2.681,0,0,1,2.67867-2.6739,2.48822,2.48822,0,0,1,1.15443.2648,2.60532,2.60532,0,0,1,.908.80332v-.94348Zm-2.67365.51126a2.03229,2.03229,0,0,0-1.028.27,2.00958,2.00958,0,0,0-.75092.75631,2.06787,2.06787,0,0,0-.2768,1.03383,2.04443,2.04443,0,0,0,.28007,1.031,2.02957,2.02957,0,0,0,1.77,1.04139,2.0961,2.0961,0,0,0,1.0359-.27236,1.91593,1.91593,0,0,0,.75467-.73657,2.08246,2.08246,0,0,0,.26225-1.0451,2.01431,2.01431,0,0,0-.5915-1.48252,1.97037,1.97037,0,0,0-1.45569-.59593Zm7.87291,2.14337H76.77892v2.47166h-.66273V39.25413h.66273v2.03751h3.02857V39.25413h.665v5.12629h-.665V41.90876Zm2.81593-2.65463V43.0512l3.81735-3.79707h.05365v5.12629h-.66557V40.61249L82.043,44.38042h-.08376V39.25413Zm8.72685,0V43.0512L95.169,39.25413h.05173v5.12629h-.66413V40.61249l-3.78816,3.76793h-.08279V39.25413Zm8.06267,0h.66558v2.1584l2.41617-2.1584h.91434l-2.62362,2.339,2.83481,2.78727h-.9454l-2.38752-2.3696-.20879.183v2.18662h-.66558V39.25413Zm7.36753-.12465a2.58916,2.58916,0,0,1,1.98814.85461,2.71409,2.71409,0,0,1-.03949,3.72044,2.78,2.78,0,0,1-3.90669,0,2.707,2.707,0,0,1-.04094-3.71529,2.59814,2.59814,0,0,1,1.999-.85977Zm-.00516.64578a1.93832,1.93832,0,0,0-1.4294.60532,2.0081,2.0081,0,0,0-.59829,1.46562,2.07311,2.07311,0,0,0,.2714,1.03335,1.93419,1.93419,0,0,0,.73888.73844,2.11484,2.11484,0,0,0,2.03568,0,1.92306,1.92306,0,0,0,.737-.73844,2.06055,2.06055,0,0,0,.2728-1.03335,2.00143,2.00143,0,0,0-.60113-1.46562,1.94065,1.94065,0,0,0-1.427-.60532Zm9.59225-.52113h.19473l1.7506,5.12629h-.69659l-1.285-3.76562-2.00182,3.76562h-.12277l-1.999-3.78113-1.28447,3.78113h-.69616l1.76948-5.12629h.18105l2.095,4.01014,2.09492-4.01014Zm2.93634,0h4.35919v5.12629h-.665V39.87168H119.969v4.50873h-.66509V39.25413Zm10.247,5.12629h-.69938l-1.753-3.73739-1.72334,3.73739h-.71537l2.3696-5.12629h.118l2.40346,5.12629Zm5.39586-1.69935.563.29394a3.0557,3.0557,0,0,1-.64106.86121,2.576,2.576,0,0,1-.81844.49907,2.89652,2.89652,0,0,1-1.02911.17117,2.51109,2.51109,0,0,1-1.99238-.82075,2.73873,2.73873,0,0,1-.71821-1.8541,2.70221,2.70221,0,0,1,.611-1.73418,2.49579,2.49579,0,0,1,2.06294-.96794,2.586,2.586,0,0,1,2.127.99337,2.73978,2.73978,0,0,1,.57334,1.74733h-4.68983a2.05566,2.05566,0,0,0,.57994,1.45805,1.87077,1.87077,0,0,0,1.3861.56963,2.29886,2.29886,0,0,0,.77563-.13452,2.0317,2.0317,0,0,0,.63918-.35891,3.01591,3.01591,0,0,0,.571-.72337Zm.00515-1.38046a2.1739,2.1739,0,0,0-.38993-.84383,1.86078,1.86078,0,0,0-.681-.5075,2.13123,2.13123,0,0,0-.888-.19333,1.92661,1.92661,0,0,0-1.3193.48448,2.1733,2.1733,0,0,0-.61052,1.06018Zm1.96416-2.04647h.66273v2.1584l2.41757-2.1584h.91674l-2.62458,2.339,2.83341,2.78727h-.9454l-2.38607-2.3696-.21168.183v2.18662h-.66273V39.25413Zm4.32908,0h3.41051v.56958h-1.37907v4.5567h-.66321v-4.5567h-1.36823v-.56958Zm3.76042,0h.69235l1.79062,3.93116,1.7389-3.93116h.7121l-3.09677,7.00014h-.71258l1.016-2.29432-2.14058-4.70582Zm6.46918,5.12629h-.66369V39.25413h.66369v2.15277h.87908a2.68114,2.68114,0,0,1,2.6791-2.27741,2.58522,2.58522,0,0,1,1.9303.79817,2.63886,2.63886,0,0,1,.777,1.904,2.6724,2.6724,0,0,1-2.70217,2.67486,2.664,2.664,0,0,1-1.80141-.66649,2.59763,2.59763,0,0,1-.88284-1.78634h-.87908v2.32678Zm5.58018-2.53422a1.996,1.996,0,0,0-.602-1.46041,1.95822,1.95822,0,0,0-2.84136,0,2.08078,2.08078,0,0,0-.02822,2.89872,2.0565,2.0565,0,0,0,2.89265,0,1.98156,1.98156,0,0,0,.579-1.43831Zm10.16183,2.53422h-8.247V39.25413h.66509v4.50922h2.88177V39.25413h.66461v4.50922H166.047V39.25413h.68108v4.50922h1.12462v1.42843h-.636v-.81136Zm2.19842-5.12629V43.0512l3.81922-3.79707h.05077v5.12629H172.622V40.61249l-3.78676,3.76793H168.752V39.25413Zm9.73949,3.42693.56111.29394a3.03559,3.03559,0,0,1-.63966.86121,2.5686,2.5686,0,0,1-.818.49907,2.898,2.898,0,0,1-1.031.17117,2.50431,2.50431,0,0,1-1.98954-.82075,2.739,2.739,0,0,1-.7187-1.8541,2.69821,2.69821,0,0,1,.60956-1.73418,2.49819,2.49819,0,0,1,2.062-.96794,2.5825,2.5825,0,0,1,2.12738.99337,2.73318,2.73318,0,0,1,.57575,1.74733h-4.69031a2.06345,2.06345,0,0,0,.57994,1.45805,1.8685,1.8685,0,0,0,1.3861.56963,2.28194,2.28194,0,0,0,.7737-.13452,2.02624,2.02624,0,0,0,.64015-.35891,2.99225,2.99225,0,0,0,.5715-.72337Zm.00655-1.38046a2.18141,2.18141,0,0,0-.39224-.84383,1.82578,1.82578,0,0,0-.682-.5075,2.10527,2.10527,0,0,0-.88616-.19333,1.92876,1.92876,0,0,0-1.31978.48448,2.182,2.182,0,0,0-.61192,1.06018Z" style="fill:#435363"/><path d="M7.63037,9.68431A12.04156,12.04156,0,0,1,17.161,5.01611a12.18939,12.18939,0,0,1,1.64127.11054l.57122-4.164A16.59374,16.59374,0,0,0,17.161.814a16.26875,16.26875,0,0,0-2.2135,32.38671,16.53049,16.53049,0,0,0,2.2135.14955A16.28,16.28,0,0,0,32.229,10.93782l-3.8921,1.58646A12.06741,12.06741,0,0,1,17.161,29.14633a12.2681,12.2681,0,0,1-1.64156-.10909A12.06682,12.06682,0,0,1,7.63037,9.68431Z" style="fill:#00bfd6;fill-rule:evenodd"/><path d="M61.91666,15.85387h0q-.06668-.59617-.18533-1.15424l-.03646-.15335a10.56131,10.56131,0,0,0-3.33971-5.65873,8.69178,8.69178,0,0,0-11.52067-.00188,10.53753,10.53753,0,0,0-3.3385,5.65782l-.02986.13028c-.0682.31985-.12489.64342-.167.97127q-.0656.51923-.08491,1.03571h.00164V31.93269H39.35478V16.68074h.00164c-.01243-.34384-.04137-.68956-.08323-1.03571q-.06458-.49242-.1679-.97175l-.02986-.1298a10.52693,10.52693,0,0,0-3.34019-5.65782,8.68842,8.68842,0,0,0-11.51812.00188,10.56275,10.56275,0,0,0-3.34135,5.65873l-.1298.56539H16.86164l.16578-.89931a15.13445,15.13445,0,0,1,4.62726-8.47423,12.42012,12.42012,0,0,1,8.36606-3.33571,12.01971,12.01971,0,0,1,6.91412,2.2017,14.32292,14.32292,0,0,1,4.29286,4.81871,14.31194,14.31194,0,0,1,4.33188-4.806,12.27072,12.27072,0,0,1,6.99171-2.21437,12.41817,12.41817,0,0,1,8.36442,3.33571,15.0885,15.0885,0,0,1,4.52005,7.93427h.01272l.10793.60253c.01175.05784.02259.11569.03294.175l.12132.66177h-.02659c.02331.1914.04445.38661.06232.58418q.06669.73091.067,1.43359V31.93269h-3.8277V17.12943a11.96621,11.96621,0,0,0-.06911-1.27556Z" style="fill:#00bfd6"/></svg>