<svg xmlns="http://www.w3.org/2000/svg" xmlns:xlink="http://www.w3.org/1999/xlink" viewBox="0 0 270 54"><defs><mask id="a" x="0" y="0" width="54" height="54" maskUnits="userSpaceOnUse"><g transform="translate(1.5 1.5)"><path d="M50.5,25.5a25,25,0,1,1-25-25A25,25,0,0,1,50.5,25.5Z" style="fill:#fff"/></g></mask><mask id="b" x="72" y="0" width="54" height="54" maskUnits="userSpaceOnUse"><g transform="translate(1.5 1.5)"><path d="M122.5,25.5a25,25,0,1,1-25-25A25,25,0,0,1,122.5,25.5Z" style="fill:#fff"/></g></mask><mask id="c" x="144" y="0" width="54" height="54" maskUnits="userSpaceOnUse"><g transform="translate(1.5 1.5)"><path d="M194.5,25.5a25,25,0,1,1-25-25A25,25,0,0,1,194.5,25.5Z" style="fill:#fff"/></g></mask><mask id="d" x="216" y="0" width="54" height="54" maskUnits="userSpaceOnUse"><g transform="translate(1.5 1.5)"><path d="M266.5,25.5a25,25,0,1,1-25-25A25,25,0,0,1,266.5,25.5Z" style="fill:#fff"/></g></mask></defs><title>logo-contacts</title><path d="M50.5,25.5a25,25,0,1,1-25-25A25,25,0,0,1,50.5,25.5Z" transform="translate(1.5 1.5)" style="fill:#fff"/><g style="mask:url(#a)"><path d="M48.5,25.5a23.00006,23.00006,0,0,1-23,23v4a27,27,0,0,0,27-27Zm-23,23a23.00006,23.00006,0,0,1-23-23h-4a27,27,0,0,0,27,27Zm-23-23a23.00006,23.00006,0,0,1,23-23v-4a27,27,0,0,0-27,27Zm23-23a23.00006,23.00006,0,0,1,23,23h4a27,27,0,0,0-27-27Z" transform="translate(1.5 1.5)" style="fill:#4abad9"/></g><path d="M122.5,25.5a25,25,0,1,1-25-25A25,25,0,0,1,122.5,25.5Z" transform="translate(1.5 1.5)" style="fill:#fff"/><g style="mask:url(#b)"><path d="M120.5,25.5a23.00006,23.00006,0,0,1-23,23v4a27,27,0,0,0,27-27Zm-23,23a23.00006,23.00006,0,0,1-23-23h-4a27,27,0,0,0,27,27Zm-23-23a23.00006,23.00006,0,0,1,23-23v-4a27,27,0,0,0-27,27Zm23-23a23.00006,23.00006,0,0,1,23,23h4a27,27,0,0,0-27-27Z" transform="translate(1.5 1.5)" style="fill:#4abad9"/></g><path d="M194.5,25.5a25,25,0,1,1-25-25A25,25,0,0,1,194.5,25.5Z" transform="translate(1.5 1.5)" style="fill:#fff"/><g style="mask:url(#c)"><path d="M192.5,25.5a23.00006,23.00006,0,0,1-23,23v4a27,27,0,0,0,27-27Zm-23,23a23.00006,23.00006,0,0,1-23-23h-4a27,27,0,0,0,27,27Zm-23-23a23.00006,23.00006,0,0,1,23-23v-4a27,27,0,0,0-27,27Zm23-23a23.00006,23.00006,0,0,1,23,23h4a27,27,0,0,0-27-27Z" transform="translate(1.5 1.5)" style="fill:#4abad9"/></g><path d="M266.5,25.5a25,25,0,1,1-25-25A25,25,0,0,1,266.5,25.5Z" transform="translate(1.5 1.5)" style="fill:#fff"/><g style="mask:url(#d)"><path d="M264.5,25.5a23.00006,23.00006,0,0,1-23,23v4a27,27,0,0,0,27-27Zm-23,23a23.00006,23.00006,0,0,1-23-23h-4a27,27,0,0,0,27,27Zm-23-23a23.00006,23.00006,0,0,1,23-23v-4a27,27,0,0,0-27,27Zm23-23a23.00006,23.00006,0,0,1,23,23h4a27,27,0,0,0-27-27Z" transform="translate(1.5 1.5)" style="fill:#4abad9"/></g><path d="M50.5,26.5h22v-2h-22Z" transform="translate(1.5 1.5)" style="fill:#4abad9"/><path d="M122.5,26.5h22v-2h-22Z" transform="translate(1.5 1.5)" style="fill:#4abad9"/><path d="M194.5,26.5h22v-2h-22Z" transform="translate(1.5 1.5)" style="fill:#4abad9"/><path d="M32.13037,24.0957,26.84863,35.32715a1.85208,1.85208,0,0,1-1.66895,1.03027,1.8146,1.8146,0,0,1-1.6543-1.03027L18.229,24.0957A6.083,6.083,0,0,1,17.75,21.498a7.42969,7.42969,0,0,1,14.85938,0A6.083,6.083,0,0,1,32.13037,24.0957Zm-6.95068-6.3125A3.71484,3.71484,0,1,0,28.89453,21.498,3.72223,3.72223,0,0,0,25.17969,17.7832Z" transform="translate(1.5 1.5)" style="fill:none;stroke:#4abad9;stroke-miterlimit:10"/><path d="M107.73193,33.22168a3.822,3.822,0,0,1-1.77051,1.53809,5.54092,5.54092,0,0,1-2.69922.74023,11.19284,11.19284,0,0,1-3.80176-1.001,13.64935,13.64935,0,0,1-2.53955-1.2041,24.51426,24.51426,0,0,1-6.96533-6.96582,13.54261,13.54261,0,0,1-1.2041-2.53955A11.17117,11.17117,0,0,1,87.75,19.98779a5.54619,5.54619,0,0,1,.74023-2.69922,3.82474,3.82474,0,0,1,1.53809-1.77051,6.46773,6.46773,0,0,1,2.01709-.44971.74182.74182,0,0,1,.30469.04346c.30469.10156.624.8125.769,1.103.46436.82715.91406,1.66846,1.39307,2.48145.23193.377.66748.84131.66748,1.2915,0,.88525-2.62646,2.17627-2.62646,2.96a3.11774,3.11774,0,0,0,.56592,1.248,14.4402,14.4402,0,0,0,5.93506,5.93506,3.11885,3.11885,0,0,0,1.248.56641c.78369,0,2.07471-2.627,2.96-2.627.4502,0,.91455.43555,1.2915.668.813.47852,1.6543.92773,2.48145,1.39258.29053.14453,1.00146.46484,1.103.76953a.74182.74182,0,0,1,.04346.30469A6.474,6.474,0,0,1,107.73193,33.22168Z" transform="translate(1.5 1.5)" style="fill:none;stroke:#4abad9;stroke-miterlimit:10"/><path d="M182.50391,34.03516a2.329,2.329,0,0,1-2.32227,2.32227H158.82227A2.329,2.329,0,0,1,156.5,34.03516V18.24756a2.32886,2.32886,0,0,1,2.32227-2.32178h21.35938a2.32886,2.32886,0,0,1,2.32227,2.32178Zm-2.32227-16.252H158.82227a.4777.4777,0,0,0-.46484.46436,5.23325,5.23325,0,0,0,2.13281,4.12109q2.918,2.28589,5.81934,4.6001c.76855.624,2.16211,1.959,3.17773,1.959h.0293c1.01563,0,2.40918-1.335,3.17773-1.959q2.896-2.30713,5.81934-4.6001a5.6537,5.6537,0,0,0,2.13281-3.584C180.64648,18.42188,180.7334,17.7832,180.18164,17.7832Zm.46484,5.10791a7.777,7.777,0,0,1-1.002.95752c-2.07422,1.59668-4.16406,3.22168-6.18164,4.90527-1.08789.91406-2.4375,2.03125-3.94629,2.03125h-.0293c-1.50879,0-2.8584-1.11719-3.94629-2.03125-2.01758-1.68359-4.10742-3.30859-6.18164-4.90527a7.777,7.777,0,0,1-1.002-.95752v11.144a.47779.47779,0,0,0,.46484.46484h21.35938a.47779.47779,0,0,0,.46484-.46484Z" transform="translate(1.5 1.5)" style="fill:#4abad9"/><path d="M253.35156,23.36865a16.69375,16.69375,0,0,0-22.98437,0,.52354.52354,0,0,1-.32031.13086,8.304,8.304,0,0,1-2.4375-2.438.47719.47719,0,0,1,.14453-.334,20.40848,20.40848,0,0,1,28.21094,0,.47719.47719,0,0,1,.14453.334,8.304,8.304,0,0,1-2.4375,2.438A.52354.52354,0,0,1,253.35156,23.36865Zm-3.94629,3.94775c-2.39453-1.85791-4.41113-2.96094-7.5459-2.96094-4.38281,0-7.71973,3.07617-7.87891,3.07617a8.25692,8.25692,0,0,1-2.42383-2.4375.47.47,0,0,1,.14453-.31934,14.80644,14.80644,0,0,1,20.31641,0,.47.47,0,0,1,.14453.31934,8.25692,8.25692,0,0,1-2.42383,2.4375A.66144.66144,0,0,1,249.40527,27.31641Zm-7.5459,2.61133a7.92044,7.92044,0,0,0-3.918,1.45117,8.20028,8.20028,0,0,1-2.45312-2.4375.4701.4701,0,0,1,.14648-.334,9.28773,9.28773,0,0,1,12.44922,0,.4701.4701,0,0,1,.14648.334,8.20029,8.20029,0,0,1-2.45312,2.4375A7.92044,7.92044,0,0,0,241.85938,29.92773Zm-2.4082,2.96094c0-.71191,1.85742-1.10352,2.4082-1.10352s2.4082.3916,2.4082,1.10352a7.269,7.269,0,0,1-2.4082,2.42285A7.269,7.269,0,0,1,239.45117,32.88867Z" transform="translate(1.5 1.5)" style="fill:none;stroke:#4abad9;stroke-miterlimit:10"/></svg>